<?xml version="1.0" encoding="UTF-8"?>
<svg width="512px" height="512px" viewBox="0 0 512 512" version="1.1" xmlns="http://www.w3.org/2000/svg" xmlns:xlink="http://www.w3.org/1999/xlink">
    <!-- Generator: Sketch 62 (91390) - https://sketch.com -->
    <title>扫描仪-512</title>
    <desc>Created with Sketch.</desc>
    <defs>
        <filter x="-15.7%" y="-11.4%" width="131.4%" height="122.9%" filterUnits="objectBoundingBox" id="filter-1">
            <feOffset dx="0" dy="8" in="SourceAlpha" result="shadowOffsetOuter1"></feOffset>
            <feGaussianBlur stdDeviation="10" in="shadowOffsetOuter1" result="shadowBlurOuter1"></feGaussianBlur>
            <feComposite in="shadowBlurOuter1" in2="SourceAlpha" operator="out" result="shadowBlurOuter1"></feComposite>
            <feColorMatrix values="0 0 0 0 0   0 0 0 0 0   0 0 0 0 0  0 0 0 0.2 0" type="matrix" in="shadowBlurOuter1" result="shadowMatrixOuter1"></feColorMatrix>
            <feMerge>
                <feMergeNode in="shadowMatrixOuter1"></feMergeNode>
                <feMergeNode in="SourceGraphic"></feMergeNode>
            </feMerge>
        </filter>
        <linearGradient x1="50%" y1="0%" x2="50%" y2="100%" id="linearGradient-2">
            <stop stop-color="#0ECB04" offset="0%"></stop>
            <stop stop-color="#008972" offset="100%"></stop>
        </linearGradient>
        <filter x="-20.2%" y="-22.7%" width="140.5%" height="144.0%" filterUnits="objectBoundingBox" id="filter-3">
            <feOffset dx="0" dy="8" in="SourceAlpha" result="shadowOffsetOuter1"></feOffset>
            <feGaussianBlur stdDeviation="12.5" in="shadowOffsetOuter1" result="shadowBlurOuter1"></feGaussianBlur>
            <feColorMatrix values="0 0 0 0 0   0 0 0 0 0   0 0 0 0 0  0 0 0 0.21 0" type="matrix" in="shadowBlurOuter1" result="shadowMatrixOuter1"></feColorMatrix>
            <feMerge>
                <feMergeNode in="shadowMatrixOuter1"></feMergeNode>
                <feMergeNode in="SourceGraphic"></feMergeNode>
            </feMerge>
        </filter>
        <path d="M120,93 L268,93 C290.09139,93 308,110.90861 308,133 L308,258 C308,280.09139 290.09139,298 268,298 L120,298 C97.90861,298 80,280.09139 80,258 L80,133 C80,110.90861 97.90861,93 120,93 Z" id="path-4"></path>
        <mask id="mask-5" maskContentUnits="userSpaceOnUse" maskUnits="objectBoundingBox" x="0" y="0" width="228" height="205" fill="white">
            <use xlink:href="#path-4"></use>
        </mask>
        <linearGradient x1="50%" y1="0%" x2="50%" y2="100%" id="linearGradient-6">
            <stop stop-color="#C3FFBF" stop-opacity="0.305015297" offset="0%"></stop>
            <stop stop-color="#83E991" stop-opacity="0.778791521" offset="100%"></stop>
        </linearGradient>
        <linearGradient x1="84.4802726%" y1="31.3461306%" x2="44.517753%" y2="76.7867703%" id="linearGradient-7">
            <stop stop-color="#FFFFFF" offset="0%"></stop>
            <stop stop-color="#D6DDF6" offset="100%"></stop>
        </linearGradient>
        <linearGradient x1="72.5830172%" y1="27.9585114%" x2="50%" y2="79.1204986%" id="linearGradient-8">
            <stop stop-color="#FFFFFF" offset="0%"></stop>
            <stop stop-color="#D7FFC6" offset="100%"></stop>
        </linearGradient>
        <radialGradient cx="52.3239218%" cy="53.481434%" fx="52.3239218%" fy="53.481434%" r="63.7007328%" gradientTransform="translate(0.523239,0.534814),scale(0.877005,1.000000),rotate(121.960089),scale(1.000000,1.264710),translate(-0.523239,-0.534814)" id="radialGradient-9">
            <stop stop-color="#000000" offset="0%"></stop>
            <stop stop-color="#000000" stop-opacity="0.148218969" offset="100%"></stop>
        </radialGradient>
        <linearGradient x1="69.3330099%" y1="71.0965544%" x2="56.8323603%" y2="57.7013487%" id="linearGradient-10">
            <stop stop-color="#C6C6C6" offset="0%"></stop>
            <stop stop-color="#E7E7E7" offset="53.0517663%"></stop>
            <stop stop-color="#F4F4F4" offset="100%"></stop>
        </linearGradient>
        <path d="M302,-6 C302,-6 296.244929,17.5896401 291.243902,25.6595745 C283.32587,38.4365529 274.341463,35.3617021 267.170732,46.0851064 C260,56.8085106 262.695322,64.6076841 246.170732,78.7659574 C237.315151,86.3534212 218,90 218,90 C269.438202,90 302,30.9496403 302,-6 Z" id="path-11"></path>
        <filter x="-9.5%" y="-4.2%" width="119.0%" height="116.7%" filterUnits="objectBoundingBox" id="filter-12">
            <feOffset dx="0" dy="4" in="SourceAlpha" result="shadowOffsetOuter1"></feOffset>
            <feGaussianBlur stdDeviation="2" in="shadowOffsetOuter1" result="shadowBlurOuter1"></feGaussianBlur>
            <feColorMatrix values="0 0 0 0 0   0 0 0 0 0   0 0 0 0 0  0 0 0 0.05 0" type="matrix" in="shadowBlurOuter1"></feColorMatrix>
        </filter>
        <linearGradient x1="80.4721539%" y1="22.8386144%" x2="50%" y2="80.8673469%" id="linearGradient-13">
            <stop stop-color="#000000" stop-opacity="0.0351835664" offset="0%"></stop>
            <stop stop-color="#000000" stop-opacity="0.08" offset="100%"></stop>
        </linearGradient>
        <radialGradient cx="50%" cy="50%" fx="50%" fy="50%" r="94.5776543%" gradientTransform="translate(0.500000,0.500000),scale(0.458763,1.000000),scale(1.000000,0.304672),translate(-0.500000,-0.500000)" id="radialGradient-14">
            <stop stop-color="#EBFF26" offset="0%"></stop>
            <stop stop-color="#F2FF3D" stop-opacity="0" offset="100%"></stop>
        </radialGradient>
        <filter x="-3.9%" y="-8.4%" width="107.7%" height="116.9%" filterUnits="objectBoundingBox" id="filter-15">
            <feGaussianBlur stdDeviation="5" in="SourceGraphic"></feGaussianBlur>
        </filter>
        <radialGradient cx="50%" cy="50%" fx="50%" fy="50%" r="520.710277%" gradientTransform="translate(0.500000,0.500000),scale(0.094512,1.000000),scale(1.000000,0.071987),translate(-0.500000,-0.500000)" id="radialGradient-16">
            <stop stop-color="#F7FF81" stop-opacity="0.995473976" offset="0%"></stop>
            <stop stop-color="#F8FF98" stop-opacity="0" offset="100%"></stop>
        </radialGradient>
        <radialGradient cx="50%" cy="50%" fx="50%" fy="50%" r="1628.5185%" gradientTransform="translate(0.500000,0.500000),scale(0.030220,1.000000),scale(1.000000,0.013063),translate(-0.500000,-0.500000)" id="radialGradient-17">
            <stop stop-color="#FFFFFF" stop-opacity="0.995473976" offset="0%"></stop>
            <stop stop-color="#FFFFFF" stop-opacity="0" offset="100%"></stop>
        </radialGradient>
        <linearGradient x1="0%" y1="50%" x2="99.2134713%" y2="50%" id="linearGradient-18">
            <stop stop-color="#FFFFFF" stop-opacity="0" offset="0%"></stop>
            <stop stop-color="#FFFFFF" stop-opacity="0.891541755" offset="49.7980275%"></stop>
            <stop stop-color="#FFFFFF" stop-opacity="0" offset="100%"></stop>
        </linearGradient>
    </defs>
    <g id="扫描仪-512" stroke="none" stroke-width="1" fill="none" fill-rule="evenodd">
        <g id="编组-2" filter="url(#filter-1)" transform="translate(20.000000, 20.000000)">
            <circle id="椭圆形" fill="url(#linearGradient-2)" cx="236" cy="236" r="236"></circle>
            <g id="编组" filter="url(#filter-3)" transform="translate(42.000000, 87.000000)">
                <use id="矩形备份-3" stroke-opacity="0.703316215" stroke="#96FF8F" mask="url(#mask-5)" stroke-width="8" fill="#0EA141" stroke-dasharray="6,6" xlink:href="#path-4"></use>
                <path d="M249,254 C251.209139,254 253,255.790861 253,258 L253,262 C253,264.209139 251.209139,266 249,266 L176,266 C173.790861,266 172,264.209139 172,262 L172,258 C172,255.790861 173.790861,254 176,254 L249,254 Z M156,254 C158.209139,254 160,255.790861 160,258 L160,262 C160,264.209139 158.209139,266 156,266 L114,266 C111.790861,266 110,264.209139 110,262 L110,258 C110,255.790861 111.790861,254 114,254 L156,254 Z M226,230 C228.209139,230 230,231.790861 230,234 L230,238 C230,240.209139 228.209139,242 226,242 L114,242 C111.790861,242 110,240.209139 110,238 L110,234 C110,231.790861 111.790861,230 114,230 L226,230 Z M131,206 C133.209139,206 135,207.790861 135,210 L135,214 C135,216.209139 133.209139,218 131,218 L114,218 C111.790861,218 110,216.209139 110,214 L110,210 C110,207.790861 111.790861,206 114,206 L131,206 Z M202,206 C204.209139,206 206,207.790861 206,210 L206,214 C206,216.209139 204.209139,218 202,218 L149,218 C146.790861,218 145,216.209139 145,214 L145,210 C145,207.790861 146.790861,206 149,206 L202,206 Z M273,206 C275.209139,206 277,207.790861 277,210 L277,214 C277,216.209139 275.209139,218 273,218 L220,218 C217.790861,218 216,216.209139 216,214 L216,210 C216,207.790861 217.790861,206 220,206 L273,206 Z M239,182 C241.209139,182 243,183.790861 243,186 L243,190 C243,192.209139 241.209139,194 239,194 L114,194 C111.790861,194 110,192.209139 110,190 L110,186 C110,183.790861 111.790861,182 114,182 L239,182 Z" id="形状结合备份-2" fill="url(#linearGradient-6)" opacity="0.359375"></path>
                <path d="M120,0 L231.5,0 L231.5,0 C245.035439,4.96850882 260.202105,14.8018422 277,29.5 C293,43.5 303.333333,61 308,82 L308,174 L80,174 L80,40 C80,17.90861 97.90861,4.05812251e-15 120,0 Z" id="矩形备份-5" fill="url(#linearGradient-7)"></path>
                <path d="M120,0 L268,0 C290.09139,-4.05812251e-15 308,17.90861 308,40 L308,174 L308,174 L80,174 L80,40 C80,17.90861 97.90861,4.05812251e-15 120,0 Z" id="矩形备份-2" fill="url(#linearGradient-8)"></path>
                <path d="M214.5,0 L268,0 C290.09139,-4.05812251e-15 308,17.90861 308,40 L308,82 L308,82 C304.333333,60.3333333 292,41.6666667 271,26 C252.679518,12.3323387 233.846184,3.66567203 214.5,0 Z" id="路径" fill-opacity="0.28" fill="url(#radialGradient-9)"></path>
                <g id="路径-11" transform="translate(260.000000, 42.000000) rotate(-90.000000) translate(-260.000000, -42.000000) ">
                    <use fill="black" fill-opacity="1" filter="url(#filter-12)" xlink:href="#path-11"></use>
                    <use fill="url(#linearGradient-10)" fill-rule="evenodd" xlink:href="#path-11"></use>
                </g>
                <path d="M156,136 C158.209139,136 160,137.790861 160,140 L160,168 C160,170.209139 158.209139,172 156,172 L114,172 C111.790861,172 110,170.209139 110,168 L110,140 C110,137.790861 111.790861,136 114,136 L156,136 Z M274,160 C276.209139,160 278,161.790861 278,164 L278,168 C278,170.209139 276.209139,172 274,172 L176,172 C173.790861,172 172,170.209139 172,168 L172,164 C172,161.790861 173.790861,160 176,160 L274,160 Z M253,136 C255.209139,136 257,137.790861 257,140 L257,144 C257,146.209139 255.209139,148 253,148 L176,148 C173.790861,148 172,146.209139 172,144 L172,140 C172,137.790861 173.790861,136 176,136 L253,136 Z M130,112 C132.209139,112 134,113.790861 134,116 L134,120 C134,122.209139 132.209139,124 130,124 L114,124 C111.790861,124 110,122.209139 110,120 L110,116 C110,113.790861 111.790861,112 114,112 L130,112 Z M274,112 C276.209139,112 278,113.790861 278,116 L278,120 C278,122.209139 276.209139,124 274,124 L151,124 C148.790861,124 147,122.209139 147,120 L147,116 C147,113.790861 148.790861,112 151,112 L274,112 Z M273,64 C275.209139,64 277,65.790861 277,68 L277,96 C277,98.209139 275.209139,100 273,100 L196,100 C193.790861,100 192,98.209139 192,96 L192,68 C192,65.790861 193.790861,64 196,64 L273,64 Z M176,88 C178.209139,88 180,89.790861 180,92 L180,96 C180,98.209139 178.209139,100 176,100 L114,100 C111.790861,100 110,98.209139 110,96 L110,92 C110,89.790861 111.790861,88 114,88 L176,88 Z M176,64 C178.209139,64 180,65.790861 180,68 L180,72 C180,74.209139 178.209139,76 176,76 L114,76 C111.790861,76 110,74.209139 110,72 L110,68 C110,65.790861 111.790861,64 114,64 L176,64 Z M253,40 C255.209139,40 257,41.790861 257,44 L257,48 C257,50.209139 255.209139,52 253,52 L196,52 C193.790861,52 192,50.209139 192,48 L192,44 C192,41.790861 193.790861,40 196,40 L253,40 Z M176,40 C178.209139,40 180,41.790861 180,44 L180,48 C180,50.209139 178.209139,52 176,52 L114,52 C111.790861,52 110,50.209139 110,48 L110,44 C110,41.790861 111.790861,40 114,40 L176,40 Z" id="形状结合备份" fill="url(#linearGradient-13)"></path>
                <polygon id="矩形" fill="url(#radialGradient-14)" opacity="0.799153646" filter="url(#filter-15)" points="0 163.265625 194 84 388 154.921875 388 193.859375 196.5 262 0 202.203125"></polygon>
                <rect id="矩形备份-7" fill="url(#radialGradient-16)" x="30" y="158" width="328" height="31"></rect>
                <rect id="矩形备份-10" fill="url(#radialGradient-17)" opacity="0.95265997" x="12" y="168" width="364" height="11"></rect>
                <rect id="矩形备份-22" fill="url(#linearGradient-18)" opacity="0.95265997" x="84" y="172" width="220" height="4"></rect>
            </g>
        </g>
    </g>
</svg>