<?xml version="1.0" encoding="UTF-8"?>
<svg width="256px" height="256px" viewBox="0 0 256 256" version="1.1" xmlns="http://www.w3.org/2000/svg" xmlns:xlink="http://www.w3.org/1999/xlink">
    <!-- Generator: Sketch 62 (91390) - https://sketch.com -->
    <title>扫描仪-256</title>
    <desc>Created with Sketch.</desc>
    <defs>
        <filter x="-16.5%" y="-11.4%" width="133.1%" height="122.9%" filterUnits="objectBoundingBox" id="filter-1">
            <feOffset dx="0" dy="4" in="SourceAlpha" result="shadowOffsetOuter1"></feOffset>
            <feGaussianBlur stdDeviation="5" in="shadowOffsetOuter1" result="shadowBlurOuter1"></feGaussianBlur>
            <feComposite in="shadowBlurOuter1" in2="SourceAlpha" operator="out" result="shadowBlurOuter1"></feComposite>
            <feColorMatrix values="0 0 0 0 0   0 0 0 0 0   0 0 0 0 0  0 0 0 0.2 0" type="matrix" in="shadowBlurOuter1" result="shadowMatrixOuter1"></feColorMatrix>
            <feMerge>
                <feMergeNode in="shadowMatrixOuter1"></feMergeNode>
                <feMergeNode in="SourceGraphic"></feMergeNode>
            </feMerge>
        </filter>
        <linearGradient x1="50%" y1="0%" x2="50%" y2="100%" id="linearGradient-2">
            <stop stop-color="#0ECB04" offset="0%"></stop>
            <stop stop-color="#008972" offset="100%"></stop>
        </linearGradient>
        <filter x="-21.4%" y="-23.7%" width="142.8%" height="146.0%" filterUnits="objectBoundingBox" id="filter-3">
            <feOffset dx="0" dy="4" in="SourceAlpha" result="shadowOffsetOuter1"></feOffset>
            <feGaussianBlur stdDeviation="6.5" in="shadowOffsetOuter1" result="shadowBlurOuter1"></feGaussianBlur>
            <feColorMatrix values="0 0 0 0 0   0 0 0 0 0   0 0 0 0 0  0 0 0 0.21 0" type="matrix" in="shadowBlurOuter1" result="shadowMatrixOuter1"></feColorMatrix>
            <feMerge>
                <feMergeNode in="shadowMatrixOuter1"></feMergeNode>
                <feMergeNode in="SourceGraphic"></feMergeNode>
            </feMerge>
        </filter>
        <path d="M60,48 L134,48 C145.045695,48 154,56.954305 154,68 L154,130 C154,141.045695 145.045695,150 134,150 L60,150 C48.954305,150 40,141.045695 40,130 L40,68 C40,56.954305 48.954305,48 60,48 Z" id="path-4"></path>
        <mask id="mask-5" maskContentUnits="userSpaceOnUse" maskUnits="objectBoundingBox" x="0" y="0" width="114" height="102" fill="white">
            <use xlink:href="#path-4"></use>
        </mask>
        <linearGradient x1="50%" y1="0%" x2="50%" y2="100%" id="linearGradient-6">
            <stop stop-color="#C3FFBF" stop-opacity="0.305015297" offset="0%"></stop>
            <stop stop-color="#83E991" stop-opacity="0.778791521" offset="100%"></stop>
        </linearGradient>
        <linearGradient x1="84.4802726%" y1="31.3461306%" x2="44.517753%" y2="76.7867703%" id="linearGradient-7">
            <stop stop-color="#FFFFFF" offset="0%"></stop>
            <stop stop-color="#D6DDF6" offset="100%"></stop>
        </linearGradient>
        <linearGradient x1="72.5830172%" y1="27.9585114%" x2="50%" y2="79.1204986%" id="linearGradient-8">
            <stop stop-color="#FFFFFF" offset="0%"></stop>
            <stop stop-color="#D7FFC6" offset="100%"></stop>
        </linearGradient>
        <radialGradient cx="52.3239218%" cy="53.481434%" fx="52.3239218%" fy="53.481434%" r="63.7007328%" gradientTransform="translate(0.523239,0.534814),scale(0.877005,1.000000),rotate(121.960089),scale(1.000000,1.264710),translate(-0.523239,-0.534814)" id="radialGradient-9">
            <stop stop-color="#000000" offset="0%"></stop>
            <stop stop-color="#000000" stop-opacity="0.148218969" offset="100%"></stop>
        </radialGradient>
        <linearGradient x1="69.3330099%" y1="71.0965544%" x2="56.8323603%" y2="57.7013487%" id="linearGradient-10">
            <stop stop-color="#C6C6C6" offset="0%"></stop>
            <stop stop-color="#E7E7E7" offset="53.0517663%"></stop>
            <stop stop-color="#F4F4F4" offset="100%"></stop>
        </linearGradient>
        <path d="M151,-3 C151,-3 148.122464,8.79482006 145.621951,12.8297872 C141.662935,19.2182764 137.170732,17.6808511 133.585366,23.0425532 C130,28.4042553 131.347661,32.303842 123.085366,39.3829787 C118.657576,43.1767106 109,45 109,45 C134.719101,45 151,15.4748201 151,-3 Z" id="path-11"></path>
        <filter x="-9.5%" y="-4.2%" width="119.0%" height="116.7%" filterUnits="objectBoundingBox" id="filter-12">
            <feOffset dx="0" dy="2" in="SourceAlpha" result="shadowOffsetOuter1"></feOffset>
            <feGaussianBlur stdDeviation="1" in="shadowOffsetOuter1" result="shadowBlurOuter1"></feGaussianBlur>
            <feColorMatrix values="0 0 0 0 0   0 0 0 0 0   0 0 0 0 0  0 0 0 0.05 0" type="matrix" in="shadowBlurOuter1"></feColorMatrix>
        </filter>
        <linearGradient x1="80.4721539%" y1="22.8386144%" x2="50%" y2="80.8673469%" id="linearGradient-13">
            <stop stop-color="#000000" stop-opacity="0.0351835664" offset="0%"></stop>
            <stop stop-color="#000000" stop-opacity="0.08" offset="100%"></stop>
        </linearGradient>
        <radialGradient cx="50%" cy="50%" fx="50%" fy="50%" r="94.5776543%" gradientTransform="translate(0.500000,0.500000),scale(0.458763,1.000000),scale(1.000000,0.304672),translate(-0.500000,-0.500000)" id="radialGradient-14">
            <stop stop-color="#EBFF26" offset="0%"></stop>
            <stop stop-color="#F2FF3D" stop-opacity="0" offset="100%"></stop>
        </radialGradient>
        <filter x="-3.9%" y="-8.4%" width="107.7%" height="116.9%" filterUnits="objectBoundingBox" id="filter-15">
            <feGaussianBlur stdDeviation="2.5" in="SourceGraphic"></feGaussianBlur>
        </filter>
        <radialGradient cx="50%" cy="50%" fx="50%" fy="50%" r="520.710277%" gradientTransform="translate(0.500000,0.500000),scale(0.094512,1.000000),scale(1.000000,0.071987),translate(-0.500000,-0.500000)" id="radialGradient-16">
            <stop stop-color="#F7FF81" stop-opacity="0.995473976" offset="0%"></stop>
            <stop stop-color="#F8FF98" stop-opacity="0" offset="100%"></stop>
        </radialGradient>
        <radialGradient cx="50%" cy="50%" fx="50%" fy="50%" r="1628.5185%" gradientTransform="translate(0.500000,0.500000),scale(0.030220,1.000000),scale(1.000000,0.013063),translate(-0.500000,-0.500000)" id="radialGradient-17">
            <stop stop-color="#FFFFFF" stop-opacity="0.995473976" offset="0%"></stop>
            <stop stop-color="#FFFFFF" stop-opacity="0" offset="100%"></stop>
        </radialGradient>
        <linearGradient x1="0%" y1="50%" x2="99.2134713%" y2="50%" id="linearGradient-18">
            <stop stop-color="#FFFFFF" stop-opacity="0" offset="0%"></stop>
            <stop stop-color="#FFFFFF" stop-opacity="0.891541755" offset="49.7980275%"></stop>
            <stop stop-color="#FFFFFF" stop-opacity="0" offset="100%"></stop>
        </linearGradient>
    </defs>
    <g id="扫描仪-256" stroke="none" stroke-width="1" fill="none" fill-rule="evenodd">
        <g id="编组-2" filter="url(#filter-1)" transform="translate(10.000000, 10.000000)">
            <circle id="椭圆形" fill="url(#linearGradient-2)" cx="118" cy="118" r="118"></circle>
            <g id="编组" filter="url(#filter-3)" transform="translate(21.000000, 43.000000)">
                <use id="矩形备份-3" stroke-opacity="0.703316215" stroke="#96FF8F" mask="url(#mask-5)" stroke-width="4" fill="#0EA141" stroke-dasharray="3,3" xlink:href="#path-4"></use>
                <path d="M124,127 C125.104569,127 126,127.895431 126,129 L126,131 C126,132.104569 125.104569,133 124,133 L88,133 C86.8954305,133 86,132.104569 86,131 L86,129 C86,127.895431 86.8954305,127 88,127 L124,127 Z M78,127 C79.1045695,127 80,127.895431 80,129 L80,131 C80,132.104569 79.1045695,133 78,133 L57,133 C55.8954305,133 55,132.104569 55,131 L55,129 C55,127.895431 55.8954305,127 57,127 L78,127 Z M113,115 C114.104569,115 115,115.895431 115,117 L115,119 C115,120.104569 114.104569,121 113,121 L57,121 C55.8954305,121 55,120.104569 55,119 L55,117 C55,115.895431 55.8954305,115 57,115 L113,115 Z M65,103 C66.1045695,103 67,103.895431 67,105 L67,107 C67,108.104569 66.1045695,109 65,109 L57,109 C55.8954305,109 55,108.104569 55,107 L55,105 C55,103.895431 55.8954305,103 57,103 L65,103 Z M100,103 C101.104569,103 102,103.895431 102,105 L102,107 C102,108.104569 101.104569,109 100,109 L74,109 C72.8954305,109 72,108.104569 72,107 L72,105 C72,103.895431 72.8954305,103 74,103 L100,103 Z M136,103 C137.104569,103 138,103.895431 138,105 L138,107 C138,108.104569 137.104569,109 136,109 L110,109 C108.895431,109 108,108.104569 108,107 L108,105 C108,103.895431 108.895431,103 110,103 L136,103 Z M119.5,91 C120.604569,91 121.5,91.8954305 121.5,93 L121.5,95 C121.5,96.1045695 120.604569,97 119.5,97 L57,97 C55.8954305,97 55,96.1045695 55,95 L55,93 C55,91.8954305 55.8954305,91 57,91 L119.5,91 Z" id="形状结合备份-2" fill="url(#linearGradient-6)" opacity="0.359375"></path>
                <path d="M60,0 L115.75,0 L115.75,0 C122.517719,2.48425441 130.101053,7.40092108 138.5,14.75 C146.5,21.75 151.666667,30.5 154,41 L154,87 L40,87 L40,20 C40,8.954305 48.954305,5.58177493e-15 60,0 Z" id="矩形备份-5" fill="url(#linearGradient-7)"></path>
                <path d="M60,0 L134,0 C145.045695,-2.02906125e-15 154,8.954305 154,20 L154,87 L154,87 L40,87 L40,20 C40,8.954305 48.954305,2.02906125e-15 60,0 Z" id="矩形备份-2" fill="url(#linearGradient-8)"></path>
                <path d="M107.25,0 L134,0 C145.045695,-2.02906125e-15 154,8.954305 154,20 L154,41 L154,41 C152.166667,30.1666667 146,20.8333333 135.5,13 C126.339759,6.16616935 116.923092,1.83283601 107.25,0 Z" id="路径" fill-opacity="0.28" fill="url(#radialGradient-9)"></path>
                <g id="路径-11" transform="translate(130.000000, 21.000000) rotate(-90.000000) translate(-130.000000, -21.000000) ">
                    <use fill="black" fill-opacity="1" filter="url(#filter-12)" xlink:href="#path-11"></use>
                    <use fill="url(#linearGradient-10)" fill-rule="evenodd" xlink:href="#path-11"></use>
                </g>
                <path d="M78,68 C79.1045695,68 80,68.8954305 80,70 L80,84 C80,85.1045695 79.1045695,86 78,86 L57,86 C55.8954305,86 55,85.1045695 55,84 L55,70 C55,68.8954305 55.8954305,68 57,68 L78,68 Z M137,80 C138.104569,80 139,80.8954305 139,82 L139,84 C139,85.1045695 138.104569,86 137,86 L88,86 C86.8954305,86 86,85.1045695 86,84 L86,82 C86,80.8954305 86.8954305,80 88,80 L137,80 Z M126,68 C127.104569,68 128,68.8954305 128,70 L128,72 C128,73.1045695 127.104569,74 126,74 L88,74 C86.8954305,74 86,73.1045695 86,72 L86,70 C86,68.8954305 86.8954305,68 88,68 L126,68 Z M65,56 C66.1045695,56 67,56.8954305 67,58 L67,60 C67,61.1045695 66.1045695,62 65,62 L57,62 C55.8954305,62 55,61.1045695 55,60 L55,58 C55,56.8954305 55.8954305,56 57,56 L65,56 Z M137,56 C138.104569,56 139,56.8954305 139,58 L139,60 C139,61.1045695 138.104569,62 137,62 L76,62 C74.8954305,62 74,61.1045695 74,60 L74,58 C74,56.8954305 74.8954305,56 76,56 L137,56 Z M136.5,32 C137.604569,32 138.5,32.8954305 138.5,34 L138.5,48 C138.5,49.1045695 137.604569,50 136.5,50 L98,50 C96.8954305,50 96,49.1045695 96,48 L96,34 C96,32.8954305 96.8954305,32 98,32 L136.5,32 Z M88,44 C89.1045695,44 90,44.8954305 90,46 L90,48 C90,49.1045695 89.1045695,50 88,50 L57,50 C55.8954305,50 55,49.1045695 55,48 L55,46 C55,44.8954305 55.8954305,44 57,44 L88,44 Z M88,32 C89.1045695,32 90,32.8954305 90,34 L90,36 C90,37.1045695 89.1045695,38 88,38 L57,38 C55.8954305,38 55,37.1045695 55,36 L55,34 C55,32.8954305 55.8954305,32 57,32 L88,32 Z M126.5,20 C127.604569,20 128.5,20.8954305 128.5,22 L128.5,24 C128.5,25.1045695 127.604569,26 126.5,26 L98,26 C96.8954305,26 96,25.1045695 96,24 L96,22 C96,20.8954305 96.8954305,20 98,20 L126.5,20 Z M88,20 C89.1045695,20 90,20.8954305 90,22 L90,24 C90,25.1045695 89.1045695,26 88,26 L57,26 C55.8954305,26 55,25.1045695 55,24 L55,22 C55,20.8954305 55.8954305,20 57,20 L88,20 Z" id="形状结合备份" fill="url(#linearGradient-13)"></path>
                <polygon id="矩形" fill="url(#radialGradient-14)" opacity="0.799153646" filter="url(#filter-15)" points="0 82.6328125 97 43 194 78.4609375 194 97.9296875 98.25 132 0 102.101562"></polygon>
                <rect id="矩形备份-7" fill="url(#radialGradient-16)" x="15" y="80" width="164" height="15.5"></rect>
                <rect id="矩形备份-10" fill="url(#radialGradient-17)" opacity="0.95265997" x="6" y="85" width="182" height="5.5"></rect>
                <rect id="矩形备份-22" fill="url(#linearGradient-18)" opacity="0.95265997" x="42" y="87" width="110" height="2"></rect>
            </g>
        </g>
    </g>
</svg>