<?xml version="1.0" encoding="UTF-8"?>
<svg width="13px" height="14px" viewBox="0 0 13 14" version="1.1" xmlns="http://www.w3.org/2000/svg" xmlns:xlink="http://www.w3.org/1999/xlink">
    <!-- Generator: Sketch 62 (91390) - https://sketch.com -->
    <title>形状结合</title>
    <desc>Created with Sketch.</desc>
    <g id="页面-1" stroke="none" stroke-width="1" fill="none" fill-rule="evenodd">
        <g id="扫描管理-拍摄扫描-倒计时备份" transform="translate(-847.000000, -509.000000)" fill="#536076">
            <g id="对话框-12备份" transform="translate(826.000000, 492.000000)">
                <path d="M31,17 C31.5522847,17 32,17.4477153 32,18 C32,18.5522847 31.5522847,19 31,19 L30.9650251,18.9995828 C32.7886852,20.1508246 34,22.1839534 34,24.5 C34,28.0898509 31.0898509,31 27.5,31 C23.9101491,31 21,28.0898509 21,24.5 C21,22.1839534 22.2113148,20.1508246 24.0349749,18.9995828 L24,19 C23.4477153,19 23,18.5522847 23,18 C23,17.4477153 23.4477153,17 24,17 L31,17 Z M27.5,20 C27.2238576,20 27,20.2238576 27,20.5 L27,20.5 L27,24.5 L27.0080557,24.5898756 C27.0503916,24.8231248 27.2545401,25 27.5,25 L27.5,25 L31.5,25 L31.5898756,24.9919443 C31.8231248,24.9496084 32,24.7454599 32,24.5 L32,24.5 L31.9919443,24.4101244 C31.9496084,24.1768752 31.7454599,24 31.5,24 L31.5,24 L28,24 L28,20.5 L27.9919443,20.4101244 C27.9496084,20.1768752 27.7454599,20 27.5,20 Z" id="形状结合"></path>
            </g>
        </g>
    </g>
</svg>