<?xml version="1.0" encoding="UTF-8"?>
<svg width="64px" height="64px" viewBox="0 0 64 64" version="1.1" xmlns="http://www.w3.org/2000/svg" xmlns:xlink="http://www.w3.org/1999/xlink">
    <!-- Generator: Sketch 62 (91390) - https://sketch.com -->
    <title>扫描仪-64</title>
    <desc>Created with Sketch.</desc>
    <defs>
        <filter x="-20.0%" y="-13.3%" width="141.7%" height="126.7%" filterUnits="objectBoundingBox" id="filter-1">
            <feOffset dx="0" dy="1" in="SourceAlpha" result="shadowOffsetOuter1"></feOffset>
            <feGaussianBlur stdDeviation="1.5" in="shadowOffsetOuter1" result="shadowBlurOuter1"></feGaussianBlur>
            <feComposite in="shadowBlurOuter1" in2="SourceAlpha" operator="out" result="shadowBlurOuter1"></feComposite>
            <feColorMatrix values="0 0 0 0 0   0 0 0 0 0   0 0 0 0 0  0 0 0 0.2 0" type="matrix" in="shadowBlurOuter1" result="shadowMatrixOuter1"></feColorMatrix>
            <feMerge>
                <feMergeNode in="shadowMatrixOuter1"></feMergeNode>
                <feMergeNode in="SourceGraphic"></feMergeNode>
            </feMerge>
        </filter>
        <linearGradient x1="50%" y1="0%" x2="50%" y2="100%" id="linearGradient-2">
            <stop stop-color="#0ECB04" offset="0%"></stop>
            <stop stop-color="#008972" offset="100%"></stop>
        </linearGradient>
        <filter x="-25.5%" y="-30.3%" width="151.0%" height="157.9%" filterUnits="objectBoundingBox" id="filter-3">
            <feOffset dx="0" dy="1" in="SourceAlpha" result="shadowOffsetOuter1"></feOffset>
            <feGaussianBlur stdDeviation="2" in="shadowOffsetOuter1" result="shadowBlurOuter1"></feGaussianBlur>
            <feColorMatrix values="0 0 0 0 0   0 0 0 0 0   0 0 0 0 0  0 0 0 0.21 0" type="matrix" in="shadowBlurOuter1" result="shadowMatrixOuter1"></feColorMatrix>
            <feMerge>
                <feMergeNode in="shadowMatrixOuter1"></feMergeNode>
                <feMergeNode in="SourceGraphic"></feMergeNode>
            </feMerge>
        </filter>
        <path d="M15,12 L33,12 C35.7614237,12 38,14.2385763 38,17 L38,33 C38,35.7614237 35.7614237,38 33,38 L15,38 C12.2385763,38 10,35.7614237 10,33 L10,17 C10,14.2385763 12.2385763,12 15,12 Z" id="path-4"></path>
        <mask id="mask-5" maskContentUnits="userSpaceOnUse" maskUnits="objectBoundingBox" x="0" y="0" width="28" height="26" fill="white">
            <use xlink:href="#path-4"></use>
        </mask>
        <linearGradient x1="50%" y1="0%" x2="50%" y2="100%" id="linearGradient-6">
            <stop stop-color="#C3FFBF" stop-opacity="0.305015297" offset="0%"></stop>
            <stop stop-color="#83E991" stop-opacity="0.778791521" offset="100%"></stop>
        </linearGradient>
        <linearGradient x1="84.4802726%" y1="30.2271429%" x2="44.517753%" y2="78.3936255%" id="linearGradient-7">
            <stop stop-color="#FFFFFF" offset="0%"></stop>
            <stop stop-color="#D6DDF6" offset="100%"></stop>
        </linearGradient>
        <linearGradient x1="72.5830172%" y1="26.6363109%" x2="50%" y2="80.8673469%" id="linearGradient-8">
            <stop stop-color="#FFFFFF" offset="0%"></stop>
            <stop stop-color="#D7FFC6" offset="100%"></stop>
        </linearGradient>
        <radialGradient cx="52.3239218%" cy="53.481434%" fx="52.3239218%" fy="53.481434%" r="63.7416716%" gradientTransform="translate(0.523239,0.534814),scale(0.875000,1.000000),rotate(122.019022),scale(1.000000,1.264710),translate(-0.523239,-0.534814)" id="radialGradient-9">
            <stop stop-color="#000000" offset="0%"></stop>
            <stop stop-color="#000000" stop-opacity="0.148218969" offset="100%"></stop>
        </radialGradient>
        <linearGradient x1="69.3330099%" y1="71.0965544%" x2="56.8323603%" y2="57.7013487%" id="linearGradient-10">
            <stop stop-color="#C6C6C6" offset="0%"></stop>
            <stop stop-color="#E7E7E7" offset="53.0517663%"></stop>
            <stop stop-color="#F4F4F4" offset="100%"></stop>
        </linearGradient>
        <path d="M37.25,-0.75 C37.25,-0.75 36.5306161,2.19870501 35.9054878,3.20744681 C34.9157337,4.80456911 33.7926829,4.42021277 32.8963415,5.7606383 C32,7.10106383 32.3369152,8.07596051 30.2713415,9.84574468 C29.1643939,10.7941777 26.75,11.25 26.75,11.25 C33.1797753,11.25 37.25,3.86870504 37.25,-0.75 Z" id="path-11"></path>
        <filter x="-19.0%" y="-8.3%" width="138.1%" height="133.3%" filterUnits="objectBoundingBox" id="filter-12">
            <feOffset dx="0" dy="1" in="SourceAlpha" result="shadowOffsetOuter1"></feOffset>
            <feGaussianBlur stdDeviation="0.5" in="shadowOffsetOuter1" result="shadowBlurOuter1"></feGaussianBlur>
            <feColorMatrix values="0 0 0 0 0   0 0 0 0 0   0 0 0 0 0  0 0 0 0.05 0" type="matrix" in="shadowBlurOuter1"></feColorMatrix>
        </filter>
        <linearGradient x1="80.4721539%" y1="21.8419487%" x2="50%" y2="82%" id="linearGradient-13">
            <stop stop-color="#000000" stop-opacity="0.0351835664" offset="0%"></stop>
            <stop stop-color="#000000" stop-opacity="0.08" offset="100%"></stop>
        </linearGradient>
        <radialGradient cx="50%" cy="50%" fx="50%" fy="50%" r="94.5776543%" gradientTransform="translate(0.500000,0.500000),scale(0.458763,1.000000),scale(1.000000,0.304672),translate(-0.500000,-0.500000)" id="radialGradient-14">
            <stop stop-color="#EBFF26" offset="0%"></stop>
            <stop stop-color="#F2FF3D" stop-opacity="0" offset="100%"></stop>
        </radialGradient>
        <filter x="-3.9%" y="-8.4%" width="107.7%" height="116.9%" filterUnits="objectBoundingBox" id="filter-15">
            <feGaussianBlur stdDeviation="0.625" in="SourceGraphic"></feGaussianBlur>
        </filter>
        <radialGradient cx="50%" cy="50%" fx="50%" fy="50%" r="520.710277%" gradientTransform="translate(0.500000,0.500000),scale(0.094512,1.000000),scale(1.000000,0.071987),translate(-0.500000,-0.500000)" id="radialGradient-16">
            <stop stop-color="#F7FF81" stop-opacity="0.995473976" offset="0%"></stop>
            <stop stop-color="#F8FF98" stop-opacity="0" offset="100%"></stop>
        </radialGradient>
        <radialGradient cx="50%" cy="50%" fx="50%" fy="50%" r="1628.5185%" gradientTransform="translate(0.500000,0.500000),scale(0.030220,1.000000),scale(1.000000,0.013063),translate(-0.500000,-0.500000)" id="radialGradient-17">
            <stop stop-color="#FFFFFF" stop-opacity="0.995473976" offset="0%"></stop>
            <stop stop-color="#FFFFFF" stop-opacity="0" offset="100%"></stop>
        </radialGradient>
        <linearGradient x1="0%" y1="50%" x2="99.2134713%" y2="50%" id="linearGradient-18">
            <stop stop-color="#FFFFFF" stop-opacity="0" offset="0%"></stop>
            <stop stop-color="#FFFFFF" stop-opacity="0.891541755" offset="49.7980275%"></stop>
            <stop stop-color="#FFFFFF" stop-opacity="0" offset="100%"></stop>
        </linearGradient>
    </defs>
    <g id="扫描仪-64" stroke="none" stroke-width="1" fill="none" fill-rule="evenodd">
        <g id="编组-2" filter="url(#filter-1)" transform="translate(2.000000, 2.000000)">
            <circle id="椭圆形" fill="url(#linearGradient-2)" cx="30" cy="30" r="30"></circle>
            <g id="编组" filter="url(#filter-3)" transform="translate(6.000000, 11.000000)">
                <use id="矩形备份-3" stroke-opacity="0.703316215" stroke="#96FF8F" mask="url(#mask-5)" stroke-width="2" fill="#0EA141" stroke-dasharray="1,1" xlink:href="#path-4"></use>
                <path d="M16.5,32 C16.7761424,32 17,32.2238576 17,32.5 C17,32.7761424 16.7761424,33 16.5,33 L14.5,33 C14.2238576,33 14,32.7761424 14,32.5 C14,32.2238576 14.2238576,32 14.5,32 L16.5,32 Z M25.5,32 C25.7761424,32 26,32.2238576 26,32.5 C26,32.7761424 25.7761424,33 25.5,33 L19.5,33 C19.2238576,33 19,32.7761424 19,32.5 C19,32.2238576 19.2238576,32 19.5,32 L25.5,32 Z M27.5,29 C27.7761424,29 28,29.2238576 28,29.5 C28,29.7761424 27.7761424,30 27.5,30 L14.5,30 C14.2238576,30 14,29.7761424 14,29.5 C14,29.2238576 14.2238576,29 14.5,29 L27.5,29 Z M18.5,26 C18.7761424,26 19,26.2238576 19,26.5 C19,26.7761424 18.7761424,27 18.5,27 L14.5,27 C14.2238576,27 14,26.7761424 14,26.5 C14,26.2238576 14.2238576,26 14.5,26 L18.5,26 Z M33.5,26 C33.7761424,26 34,26.2238576 34,26.5 C34,26.7761424 33.7761424,27 33.5,27 L21.5,27 C21.2238576,27 21,26.7761424 21,26.5 C21,26.2238576 21.2238576,26 21.5,26 L33.5,26 Z M29.5,23 C29.7761424,23 30,23.2238576 30,23.5 C30,23.7761424 29.7761424,24 29.5,24 L14.5,24 C14.2238576,24 14,23.7761424 14,23.5 C14,23.2238576 14.2238576,23 14.5,23 L29.5,23 Z" id="形状结合备份-2" fill="url(#linearGradient-6)" opacity="0.359375"></path>
                <path d="M15,0 L28.6052632,0 L28.6052632,0 C30.26751,0.628202265 32.1300831,1.87149728 34.1929825,3.72988506 C36.1578947,5.5 37.4269006,7.71264368 38,10.3678161 L38,22 L10,22 L10,5 C10,2.23857625 12.2385763,5.07265313e-16 15,0 Z" id="矩形备份-5" fill="url(#linearGradient-7)"></path>
                <path d="M15,0 L33,0 C35.7614237,-5.07265313e-16 38,2.23857625 38,5 L38,22 L38,22 L10,22 L10,5 C10,2.23857625 12.2385763,5.07265313e-16 15,0 Z" id="矩形备份-2" fill="url(#linearGradient-8)"></path>
                <path d="M26,0 L33,0 C35.7614237,-5.07265313e-16 38,2.23857625 38,5 L38,9.5 L38,9.5 L38,10.5 C37.625,7.45833333 36.125,4.95833333 33.5,3 C31.2099397,1.29154234 28.7099397,0.291542337 26,0 Z" id="路径" fill-opacity="0.28" fill="url(#radialGradient-9)"></path>
                <g id="路径-11" transform="translate(32.000000, 5.250000) rotate(-90.000000) translate(-32.000000, -5.250000) ">
                    <use fill="black" fill-opacity="1" filter="url(#filter-12)" xlink:href="#path-11"></use>
                    <use fill="url(#linearGradient-10)" fill-rule="evenodd" xlink:href="#path-11"></use>
                </g>
                <path d="M29.5,20 C29.7761424,20 30,20.2238576 30,20.5 C30,20.7761424 29.7761424,21 29.5,21 L23.5,21 C23.2238576,21 23,20.7761424 23,20.5 C23,20.2238576 23.2238576,20 23.5,20 L29.5,20 Z M20,17 C20.5522847,17 21,17.4477153 21,18 L21,20 C21,20.5522847 20.5522847,21 20,21 L15,21 C14.4477153,21 14,20.5522847 14,20 L14,18 C14,17.4477153 14.4477153,17 15,17 L20,17 Z M33.5,17 C33.7761424,17 34,17.2238576 34,17.5 C34,17.7761424 33.7761424,18 33.5,18 L23.5,18 C23.2238576,18 23,17.7761424 23,17.5 C23,17.2238576 23.2238576,17 23.5,17 L33.5,17 Z M16.5,14 C16.7761424,14 17,14.2238576 17,14.5 C17,14.7761424 16.7761424,15 16.5,15 L14.5,15 C14.2238576,15 14,14.7761424 14,14.5 C14,14.2238576 14.2238576,14 14.5,14 L16.5,14 Z M33.5,14 C33.7761424,14 34,14.2238576 34,14.5 C34,14.7761424 33.7761424,15 33.5,15 L19.5,15 C19.2238576,15 19,14.7761424 19,14.5 C19,14.2238576 19.2238576,14 19.5,14 L33.5,14 Z M22.5,11 C22.7761424,11 23,11.2238576 23,11.5 C23,11.7761424 22.7761424,12 22.5,12 L14.5,12 C14.2238576,12 14,11.7761424 14,11.5 C14,11.2238576 14.2238576,11 14.5,11 L22.5,11 Z M33.5,8 C33.7761424,8 34,8.22385763 34,8.5 L34,11.5 C34,11.7761424 33.7761424,12 33.5,12 L25.5,12 C25.2238576,12 25,11.7761424 25,11.5 L25,8.5 C25,8.22385763 25.2238576,8 25.5,8 L33.5,8 Z M22.5,8 C22.7761424,8 23,8.22385763 23,8.5 C23,8.77614237 22.7761424,9 22.5,9 L14.5,9 C14.2238576,9 14,8.77614237 14,8.5 C14,8.22385763 14.2238576,8 14.5,8 L22.5,8 Z M32.5,5 C32.7761424,5 33,5.22385763 33,5.5 C33,5.77614237 32.7761424,6 32.5,6 L25.5,6 C25.2238576,6 25,5.77614237 25,5.5 C25,5.22385763 25.2238576,5 25.5,5 L32.5,5 Z M22.5,5 C22.7761424,5 23,5.22385763 23,5.5 C23,5.77614237 22.7761424,6 22.5,6 L14.5,6 C14.2238576,6 14,5.77614237 14,5.5 C14,5.22385763 14.2238576,5 14.5,5 L22.5,5 Z" id="形状结合备份" fill="url(#linearGradient-13)"></path>
                <g id="编组-3" transform="translate(0.000000, 10.750000)">
                    <polygon id="矩形" fill="url(#radialGradient-14)" opacity="0.799153646" filter="url(#filter-15)" points="0 9.90820312 24.25 0 48.5 8.86523438 48.5 13.7324219 24.5625 22.25 0 14.7753906"></polygon>
                    <rect id="矩形备份-7" fill="url(#radialGradient-16)" x="3.75" y="9.25" width="41" height="3.875"></rect>
                    <rect id="矩形备份-10" fill="url(#radialGradient-17)" opacity="0.95265997" x="1.5" y="10.5" width="45.5" height="1.375"></rect>
                    <rect id="矩形备份-22" fill="url(#linearGradient-18)" opacity="0.95265997" x="10.5" y="11" width="27.5" height="1"></rect>
                </g>
            </g>
        </g>
    </g>
</svg>