<?xml version="1.0" encoding="UTF-8"?>
<svg width="128px" height="128px" viewBox="0 0 128 128" version="1.1" xmlns="http://www.w3.org/2000/svg" xmlns:xlink="http://www.w3.org/1999/xlink">
    <!-- Generator: Sketch 62 (91390) - https://sketch.com -->
    <title>扫描仪-128</title>
    <desc>Created with Sketch.</desc>
    <defs>
        <filter x="-18.6%" y="-13.6%" width="138.1%" height="127.1%" filterUnits="objectBoundingBox" id="filter-1">
            <feOffset dx="0" dy="2" in="SourceAlpha" result="shadowOffsetOuter1"></feOffset>
            <feGaussianBlur stdDeviation="3" in="shadowOffsetOuter1" result="shadowBlurOuter1"></feGaussianBlur>
            <feComposite in="shadowBlurOuter1" in2="SourceAlpha" operator="out" result="shadowBlurOuter1"></feComposite>
            <feColorMatrix values="0 0 0 0 0   0 0 0 0 0   0 0 0 0 0  0 0 0 0.2 0" type="matrix" in="shadowBlurOuter1" result="shadowMatrixOuter1"></feColorMatrix>
            <feMerge>
                <feMergeNode in="shadowMatrixOuter1"></feMergeNode>
                <feMergeNode in="SourceGraphic"></feMergeNode>
            </feMerge>
        </filter>
        <linearGradient x1="50%" y1="0%" x2="50%" y2="100%" id="linearGradient-2">
            <stop stop-color="#0ECB04" offset="0%"></stop>
            <stop stop-color="#008972" offset="100%"></stop>
        </linearGradient>
        <filter x="-22.2%" y="-25.0%" width="144.3%" height="148.6%" filterUnits="objectBoundingBox" id="filter-3">
            <feOffset dx="0" dy="2" in="SourceAlpha" result="shadowOffsetOuter1"></feOffset>
            <feGaussianBlur stdDeviation="3.5" in="shadowOffsetOuter1" result="shadowBlurOuter1"></feGaussianBlur>
            <feColorMatrix values="0 0 0 0 0   0 0 0 0 0   0 0 0 0 0  0 0 0 0.21 0" type="matrix" in="shadowBlurOuter1" result="shadowMatrixOuter1"></feColorMatrix>
            <feMerge>
                <feMergeNode in="shadowMatrixOuter1"></feMergeNode>
                <feMergeNode in="SourceGraphic"></feMergeNode>
            </feMerge>
        </filter>
        <path d="M29,23 L67,23 C72.5228475,23 77,27.4771525 77,33 L77,64 C77,69.5228475 72.5228475,74 67,74 L29,74 C23.4771525,74 19,69.5228475 19,64 L19,33 C19,27.4771525 23.4771525,23 29,23 Z" id="path-4"></path>
        <mask id="mask-5" maskContentUnits="userSpaceOnUse" maskUnits="objectBoundingBox" x="0" y="0" width="58" height="51" fill="white">
            <use xlink:href="#path-4"></use>
        </mask>
        <linearGradient x1="50%" y1="0%" x2="50%" y2="100%" id="linearGradient-6">
            <stop stop-color="#C3FFBF" stop-opacity="0.305015297" offset="0%"></stop>
            <stop stop-color="#83E991" stop-opacity="0.778791521" offset="100%"></stop>
        </linearGradient>
        <linearGradient x1="84.4802726%" y1="31.5672771%" x2="44.517753%" y2="76.4692062%" id="linearGradient-7">
            <stop stop-color="#FFFFFF" offset="0%"></stop>
            <stop stop-color="#D6DDF6" offset="100%"></stop>
        </linearGradient>
        <linearGradient x1="72.5830172%" y1="28.2198189%" x2="50%" y2="78.7752675%" id="linearGradient-8">
            <stop stop-color="#FFFFFF" offset="0%"></stop>
            <stop stop-color="#D7FFC6" offset="100%"></stop>
        </linearGradient>
        <radialGradient cx="52.3239218%" cy="53.481434%" fx="52.3239218%" fy="53.481434%" r="63.7007328%" gradientTransform="translate(0.523239,0.534814),scale(0.877005,1.000000),rotate(121.960089),scale(1.000000,1.264710),translate(-0.523239,-0.534814)" id="radialGradient-9">
            <stop stop-color="#000000" offset="0%"></stop>
            <stop stop-color="#000000" stop-opacity="0.148218969" offset="100%"></stop>
        </radialGradient>
        <linearGradient x1="69.3330099%" y1="71.0965544%" x2="56.8323603%" y2="57.7013487%" id="linearGradient-10">
            <stop stop-color="#C6C6C6" offset="0%"></stop>
            <stop stop-color="#E7E7E7" offset="53.0517663%"></stop>
            <stop stop-color="#F4F4F4" offset="100%"></stop>
        </linearGradient>
        <path d="M75.5,-1.5 C75.5,-1.5 74.0612322,4.39741003 72.8109756,6.41489362 C70.8314674,9.60913822 68.5853659,8.84042553 66.7926829,11.5212766 C65,14.2021277 65.6738305,16.151921 61.5426829,19.6914894 C59.3287878,21.5883553 54.5,22.5 54.5,22.5 C67.3595506,22.5 75.5,7.73741007 75.5,-1.5 Z" id="path-11"></path>
        <filter x="-9.5%" y="-4.2%" width="119.0%" height="116.7%" filterUnits="objectBoundingBox" id="filter-12">
            <feOffset dx="0" dy="1" in="SourceAlpha" result="shadowOffsetOuter1"></feOffset>
            <feGaussianBlur stdDeviation="0.5" in="shadowOffsetOuter1" result="shadowBlurOuter1"></feGaussianBlur>
            <feColorMatrix values="0 0 0 0 0   0 0 0 0 0   0 0 0 0 0  0 0 0 0.05 0" type="matrix" in="shadowBlurOuter1"></feColorMatrix>
        </filter>
        <linearGradient x1="80.4721539%" y1="22.8386144%" x2="50%" y2="80.8673469%" id="linearGradient-13">
            <stop stop-color="#000000" stop-opacity="0.0351835664" offset="0%"></stop>
            <stop stop-color="#000000" stop-opacity="0.08" offset="100%"></stop>
        </linearGradient>
        <radialGradient cx="50%" cy="50%" fx="50%" fy="50%" r="94.5776543%" gradientTransform="translate(0.500000,0.500000),scale(0.458763,1.000000),scale(1.000000,0.304672),translate(-0.500000,-0.500000)" id="radialGradient-14">
            <stop stop-color="#EBFF26" offset="0%"></stop>
            <stop stop-color="#F2FF3D" stop-opacity="0" offset="100%"></stop>
        </radialGradient>
        <filter x="-3.9%" y="-8.4%" width="107.7%" height="116.9%" filterUnits="objectBoundingBox" id="filter-15">
            <feGaussianBlur stdDeviation="1.25" in="SourceGraphic"></feGaussianBlur>
        </filter>
        <radialGradient cx="50%" cy="50%" fx="50%" fy="50%" r="520.710277%" gradientTransform="translate(0.500000,0.500000),scale(0.094512,1.000000),scale(1.000000,0.071987),translate(-0.500000,-0.500000)" id="radialGradient-16">
            <stop stop-color="#F7FF81" stop-opacity="0.995473976" offset="0%"></stop>
            <stop stop-color="#F8FF98" stop-opacity="0" offset="100%"></stop>
        </radialGradient>
        <radialGradient cx="50%" cy="50%" fx="50%" fy="50%" r="1628.5185%" gradientTransform="translate(0.500000,0.500000),scale(0.030220,1.000000),scale(1.000000,0.013063),translate(-0.500000,-0.500000)" id="radialGradient-17">
            <stop stop-color="#FFFFFF" stop-opacity="0.995473976" offset="0%"></stop>
            <stop stop-color="#FFFFFF" stop-opacity="0" offset="100%"></stop>
        </radialGradient>
        <linearGradient x1="0%" y1="50%" x2="99.2134713%" y2="50%" id="linearGradient-18">
            <stop stop-color="#FFFFFF" stop-opacity="0" offset="0%"></stop>
            <stop stop-color="#FFFFFF" stop-opacity="0.891541755" offset="49.7980275%"></stop>
            <stop stop-color="#FFFFFF" stop-opacity="0" offset="100%"></stop>
        </linearGradient>
    </defs>
    <g id="扫描仪-128" stroke="none" stroke-width="1" fill="none" fill-rule="evenodd">
        <g id="编组-2" filter="url(#filter-1)" transform="translate(5.000000, 5.000000)">
            <circle id="椭圆形" fill="url(#linearGradient-2)" cx="59" cy="59" r="59"></circle>
            <g id="编组" filter="url(#filter-3)" transform="translate(11.000000, 22.000000)">
                <use id="矩形备份-3" stroke-opacity="0.703316215" stroke="#96FF8F" mask="url(#mask-5)" stroke-width="2" fill="#0EA141" stroke-dasharray="2,2" xlink:href="#path-4"></use>
                <path d="M62,63 C62.5522847,63 63,63.4477153 63,64 L63,65 C63,65.5522847 62.5522847,66 62,66 L44,66 C43.4477153,66 43,65.5522847 43,65 L43,64 C43,63.4477153 43.4477153,63 44,63 L62,63 Z M39,63 C39.5522847,63 40,63.4477153 40,64 L40,65 C40,65.5522847 39.5522847,66 39,66 L28,66 C27.4477153,66 27,65.5522847 27,65 L27,64 C27,63.4477153 27.4477153,63 28,63 L39,63 Z M56,57 C56.5522847,57 57,57.4477153 57,58 L57,59 C57,59.5522847 56.5522847,60 56,60 L28,60 C27.4477153,60 27,59.5522847 27,59 L27,58 C27,57.4477153 27.4477153,57 28,57 L56,57 Z M32,51 C32.5522847,51 33,51.4477153 33,52 L33,53 C33,53.5522847 32.5522847,54 32,54 L28,54 C27.4477153,54 27,53.5522847 27,53 L27,52 C27,51.4477153 27.4477153,51 28,51 L32,51 Z M50,51 C50.5522847,51 51,51.4477153 51,52 L51,53 C51,53.5522847 50.5522847,54 50,54 L37,54 C36.4477153,54 36,53.5522847 36,53 L36,52 C36,51.4477153 36.4477153,51 37,51 L50,51 Z M68,51 C68.5522847,51 69,51.4477153 69,52 L69,53 C69,53.5522847 68.5522847,54 68,54 L55,54 C54.4477153,54 54,53.5522847 54,53 L54,52 C54,51.4477153 54.4477153,51 55,51 L68,51 Z M59,45 C59.5522847,45 60,45.4477153 60,46 L60,47 C60,47.5522847 59.5522847,48 59,48 L28,48 C27.4477153,48 27,47.5522847 27,47 L27,46 C27,45.4477153 27.4477153,45 28,45 L59,45 Z" id="形状结合备份-2" fill="url(#linearGradient-6)" opacity="0.359375"></path>
                <path d="M29,0 L57.5394737,0 L57.5394737,0 C60.9826993,1.25640453 64.8408864,3.74299457 69.1140351,7.45977011 C73.1842105,11 75.8128655,15.4252874 77,20.7356322 L77,44 L19,44 L19,10 C19,4.4771525 23.4771525,-7.61826213e-16 29,0 Z" id="矩形备份-5" fill="url(#linearGradient-7)"></path>
                <path d="M29,0 L67,0 C72.5228475,-1.01453063e-15 77,4.4771525 77,10 L77,44 L77,44 L19,44 L19,10 C19,4.4771525 23.4771525,1.01453063e-15 29,0 Z" id="矩形备份-2" fill="url(#linearGradient-8)"></path>
                <path d="M53.625,1.13686838e-13 L67,1.13686838e-13 C72.5228475,1.12672307e-13 77,4.4771525 77,10 L77,20.5 L77,20.5 C76.0833333,15.0833333 73,10.4166667 67.75,6.5 C63.1698795,3.08308467 58.4615461,0.916418007 53.625,1.13686838e-13 Z" id="路径" fill-opacity="0.28" fill="url(#radialGradient-9)"></path>
                <g id="路径-11" transform="translate(65.000000, 10.500000) rotate(-90.000000) translate(-65.000000, -10.500000) ">
                    <use fill="black" fill-opacity="1" filter="url(#filter-12)" xlink:href="#path-11"></use>
                    <use fill="url(#linearGradient-10)" fill-rule="evenodd" xlink:href="#path-11"></use>
                </g>
                <path d="M39,33 C39.5522847,33 40,33.4477153 40,34 L40,41 C40,41.5522847 39.5522847,42 39,42 L28,42 C27.4477153,42 27,41.5522847 27,41 L27,34 C27,33.4477153 27.4477153,33 28,33 L39,33 Z M68,39 C68.5522847,39 69,39.4477153 69,40 L69,41 C69,41.5522847 68.5522847,42 68,42 L44,42 C43.4477153,42 43,41.5522847 43,41 L43,40 C43,39.4477153 43.4477153,39 44,39 L68,39 Z M63,33 C63.5522847,33 64,33.4477153 64,34 L64,35 C64,35.5522847 63.5522847,36 63,36 L44,36 C43.4477153,36 43,35.5522847 43,35 L43,34 C43,33.4477153 43.4477153,33 44,33 L63,33 Z M32,27 C32.5522847,27 33,27.4477153 33,28 L33,29 C33,29.5522847 32.5522847,30 32,30 L28,30 C27.4477153,30 27,29.5522847 27,29 L27,28 C27,27.4477153 27.4477153,27 28,27 L32,27 Z M68,27 C68.5522847,27 69,27.4477153 69,28 L69,29 C69,29.5522847 68.5522847,30 68,30 L37,30 C36.4477153,30 36,29.5522847 36,29 L36,28 C36,27.4477153 36.4477153,27 37,27 L68,27 Z M44,21 C44.5522847,21 45,21.4477153 45,22 L45,23 C45,23.5522847 44.5522847,24 44,24 L28,24 C27.4477153,24 27,23.5522847 27,23 L27,22 C27,21.4477153 27.4477153,21 28,21 L44,21 Z M68,15 C68.5522847,15 69,15.4477153 69,16 L69,23 C69,23.5522847 68.5522847,24 68,24 L49,24 C48.4477153,24 48,23.5522847 48,23 L48,16 C48,15.4477153 48.4477153,15 49,15 L68,15 Z M44,15 C44.5522847,15 45,15.4477153 45,16 L45,17 C45,17.5522847 44.5522847,18 44,18 L28,18 C27.4477153,18 27,17.5522847 27,17 L27,16 C27,15.4477153 27.4477153,15 28,15 L44,15 Z M63,9 C63.5522847,9 64,9.44771525 64,10 L64,11 C64,11.5522847 63.5522847,12 63,12 L49,12 C48.4477153,12 48,11.5522847 48,11 L48,10 C48,9.44771525 48.4477153,9 49,9 L63,9 Z M44,9 C44.5522847,9 45,9.44771525 45,10 L45,11 C45,11.5522847 44.5522847,12 44,12 L28,12 C27.4477153,12 27,11.5522847 27,11 L27,10 C27,9.44771525 27.4477153,9 28,9 L44,9 Z" id="形状结合备份" fill="url(#linearGradient-13)"></path>
                <g id="编组-3" transform="translate(0.000000, 21.500000)">
                    <polygon id="矩形" fill="url(#radialGradient-14)" opacity="0.799153646" filter="url(#filter-15)" points="0 19.8164062 48.5 0 97 17.7304688 97 27.4648438 49.125 44.5 0 29.5507812"></polygon>
                    <rect id="矩形备份-7" fill="url(#radialGradient-16)" x="7.5" y="18.5" width="82" height="7.75"></rect>
                    <rect id="矩形备份-10" fill="url(#radialGradient-17)" opacity="0.95265997" x="3" y="21" width="91" height="2.75"></rect>
                    <rect id="矩形备份-22" fill="url(#linearGradient-18)" opacity="0.95265997" x="21" y="22" width="55" height="1"></rect>
                </g>
            </g>
        </g>
    </g>
</svg>