<?xml version="1.0" encoding="UTF-8"?>
<svg width="18px" height="18px" viewBox="0 0 18 18" version="1.1" xmlns="http://www.w3.org/2000/svg" xmlns:xlink="http://www.w3.org/1999/xlink">
    <!-- Generator: Sketch 58 (84663) - https://sketch.com -->
    <title>button/1:1_dark</title>
    <desc>Created with Sketch.</desc>
    <g id="控件" stroke="none" stroke-width="1" fill="none" fill-rule="evenodd">
        <g id="button/1:1_dark" transform="translate(-16.000000, -16.000000)" fill="#C5CFE0">
            <g transform="translate(16.000000, 16.000000)" id="形状结合">
                <path d="M15.0074602,-1.77635684e-15 C16.6470745,-1.77635684e-15 18,1.33980569 18,2.99253976 L18,2.99253976 L18,15.0074602 C18,16.6470745 16.6601943,18 15.0074602,18 L15.0074602,18 L2.99253976,18 C1.35292554,18 5.32907052e-15,16.6601943 5.32907052e-15,15.0074602 L5.32907052e-15,15.0074602 L5.32907052e-15,2.99253976 C5.32907052e-15,1.35292554 1.33980569,-1.77635684e-15 2.99253976,-1.77635684e-15 L2.99253976,-1.77635684e-15 Z M15.0059397,1 L2.99406028,1 C1.89451376,1 1,1.8927712 1,2.99406028 L1,2.99406028 L1,15.0059397 C1,16.1054862 1.8927712,17 2.99406028,17 L2.99406028,17 L15.0059397,17 C16.1054862,17 17,16.1072288 17,15.0059397 L17,15.0059397 L17,2.99406028 C17,1.89451376 16.1072288,1 15.0059397,1 L15.0059397,1 Z M4.4922,4 C4.62751391,3.99788607 4.7579067,4.05070718 4.85359976,4.14640024 C4.94929282,4.2420933 5.00211393,4.37248609 5,4.5078 L5,4.5078 L5,13.4942 C5.00254937,13.6745175 4.90781141,13.8422394 4.75206295,13.9331421 C4.59631449,14.0240448 4.40368551,14.0240448 4.24793705,13.9331421 C4.09218859,13.8422394 3.99745063,13.6745175 4,13.4942 L4,13.4942 L4,4.5078 C3.99792842,4.37519092 4.04862192,4.24719052 4.14092794,4.15195891 C4.23323396,4.0567273 4.35959083,4.00206582 4.4922,4 Z M13.4922,4 C13.6275139,3.99788607 13.7579067,4.05070718 13.8535998,4.14640024 C13.9492928,4.2420933 14.0021139,4.37248609 14,4.5078 L14,4.5078 L14,13.4942 C14.0025494,13.6745175 13.9078114,13.8422394 13.7520629,13.9331421 C13.5963145,14.0240448 13.4036855,14.0240448 13.2479371,13.9331421 C13.0921886,13.8422394 12.9974506,13.6745175 13,13.4942 L13,13.4942 L13,4.5078 C12.9979284,4.37519092 13.0486219,4.24719052 13.1409279,4.15195891 C13.233234,4.0567273 13.3595908,4.00206582 13.4922,4 Z M8.4787,10.9993494 L8.5042,11 L9.4905,11 C9.67081745,10.9974506 9.83853937,11.0921886 9.92944207,11.2479371 C10.0203448,11.4036855 10.0203448,11.5963145 9.92944207,11.7520629 C9.83853937,11.9078114 9.67081745,12.0025494 9.4905,12 L9.4905,12 L8.5061,12 C8.32745672,12.0091279 8.15751534,11.9222513 8.06029827,11.7720994 C7.96308119,11.6219476 7.95335995,11.4313351 8.03479686,11.2720719 C8.11623377,11.1128087 8.27645498,11.0090938 8.4551,11 L8.4551,11 C8.47018893,10.9991325 8.48721107,10.9991325 8.5042,11 Z M8.4806,5.99934939 L8.5061,6 L9.4944,6 C9.67471846,5.99744908 9.84244199,6.0921867 9.93334565,6.2479358 C10.0242493,6.40368489 10.0242493,6.59631511 9.93334565,6.7520642 C9.84244199,6.9078133 9.67471846,7.00255092 9.4944,7 L9.4944,7 L8.5061,7 C8.32745672,7.00912789 8.15751534,6.9222513 8.06029827,6.77209944 C7.96308119,6.62194758 7.95335995,6.43133512 8.03479686,6.27207191 C8.11623377,6.1128087 8.27645498,6.00909382 8.4551,6 C8.47208893,5.99913252 8.48911107,5.99913252 8.5061,6 Z"></path>
            </g>
        </g>
    </g>
</svg>