<?xml version="1.0" encoding="UTF-8"?>
<svg width="15px" height="16px" viewBox="0 0 15 16" version="1.1" xmlns="http://www.w3.org/2000/svg" xmlns:xlink="http://www.w3.org/1999/xlink">
    <!-- Generator: Sketch 58 (84663) - https://sketch.com -->
    <title>button/Right rotation_dark</title>
    <desc>Created with Sketch.</desc>
    <g id="控件" stroke="none" stroke-width="1" fill="none" fill-rule="evenodd">
        <g id="button/Right-rotation_dark" transform="translate(-18.000000, -17.000000)" fill="#C5CFE0">
            <g transform="translate(18.000000, 17.000000)" id="Combined-Shape">
                <path d="M12.197258,2.77607187 L10.3846068,4.57145641 L15,4.57145641 L15,2.79017852e-05 L13.1823154,1.80039789 C11.7575233,0.647474433 9.96821523,0 8.07693824,0 C3.61616842,0 0,3.581722 0,8 C0,12.418278 3.61616842,16 8.07693824,16 C9.59237863,16 11.0479001,15.5853021 12.3107027,14.8140656 C12.6361579,14.6152991 12.7373097,14.1928465 12.5366315,13.8704915 C12.3359534,13.5481365 11.909438,13.4479482 11.5839828,13.6467148 C10.5381047,14.2854681 9.33386834,14.6285714 8.07693824,14.6285714 C4.38087181,14.6285714 1.38461796,11.6608589 1.38461796,8 C1.38461796,4.33914108 4.38087181,1.37142855 8.07693824,1.37142855 C9.59682442,1.37142855 11.0351006,1.87487033 12.197258,2.77607187 L12.197258,2.77607187 Z M8.07691018,9.14288492 C7.43965736,9.14288492 6.92306187,8.63121036 6.92306187,8.00002779 C6.92306187,7.36884523 7.43965736,6.85717067 8.07691018,6.85717067 C8.714163,6.85717067 9.23075848,7.36884523 9.23075848,8.00002779 C9.23075848,8.63121036 8.714163,9.14288492 8.07691018,9.14288492 L8.07691018,9.14288492 Z"></path>
            </g>
        </g>
    </g>
</svg>