<?xml version="1.0" encoding="UTF-8"?>
<svg width="20px" height="20px" viewBox="0 0 20 20" version="1.1" xmlns="http://www.w3.org/2000/svg" xmlns:xlink="http://www.w3.org/1999/xlink">
    <!-- Generator: Sketch 62 (91390) - https://sketch.com -->
    <title>tool_icon_1:1</title>
    <desc>Created with Sketch.</desc>
    <g id="tool_icon_1:1" stroke="none" stroke-width="1" fill="none" fill-rule="evenodd">
        <path d="M16.0074602,1 C17.6470745,1 19,2.33980569 19,3.99253976 L19,3.99253976 L19,16.0074602 C19,17.6470745 17.6601943,19 16.0074602,19 L16.0074602,19 L3.99253976,19 C2.35292554,19 1,17.6601943 1,16.0074602 L1,16.0074602 L1,3.99253976 C1,2.35292554 2.33980569,1 3.99253976,1 L3.99253976,1 Z M16.0059397,2 L3.99406028,2 C2.89451376,2 2,2.8927712 2,3.99406028 L2,3.99406028 L2,16.0059397 C2,17.1054862 2.8927712,18 3.99406028,18 L3.99406028,18 L16.0059397,18 C17.1054862,18 18,17.1072288 18,16.0059397 L18,16.0059397 L18,3.99406028 C18,2.89451376 17.1072288,2 16.0059397,2 L16.0059397,2 Z M5.4922,5 C5.62751391,4.99788607 5.7579067,5.05070718 5.85359976,5.14640024 C5.94929282,5.2420933 6.00211393,5.37248609 6,5.5078 L6,5.5078 L6,14.4942 C6.00254937,14.6745175 5.90781141,14.8422394 5.75206295,14.9331421 C5.59631449,15.0240448 5.40368551,15.0240448 5.24793705,14.9331421 C5.09218859,14.8422394 4.99745063,14.6745175 5,14.4942 L5,14.4942 L5,5.5078 C4.99792842,5.37519092 5.04862192,5.24719052 5.14092794,5.15195891 C5.23323396,5.0567273 5.35959083,5.00206582 5.4922,5 Z M14.4922,5 C14.6275139,4.99788607 14.7579067,5.05070718 14.8535998,5.14640024 C14.9492928,5.2420933 15.0021139,5.37248609 15,5.5078 L15,5.5078 L15,14.4942 C15.0025494,14.6745175 14.9078114,14.8422394 14.7520629,14.9331421 C14.5963145,15.0240448 14.4036855,15.0240448 14.2479371,14.9331421 C14.0921886,14.8422394 13.9974506,14.6745175 14,14.4942 L14,14.4942 L14,5.5078 C13.9979284,5.37519092 14.0486219,5.24719052 14.1409279,5.15195891 C14.233234,5.0567273 14.3595908,5.00206582 14.4922,5 Z M9.4787,11.9993494 L9.5042,12 L10.4905,12 C10.6708175,11.9974506 10.8385394,12.0921886 10.9294421,12.2479371 C11.0203448,12.4036855 11.0203448,12.5963145 10.9294421,12.7520629 C10.8385394,12.9078114 10.6708175,13.0025494 10.4905,13 L10.4905,13 L9.5061,13 C9.32745672,13.0091279 9.15751534,12.9222513 9.06029827,12.7720994 C8.96308119,12.6219476 8.95335995,12.4313351 9.03479686,12.2720719 C9.11623377,12.1128087 9.27645498,12.0090938 9.4551,12 L9.4551,12 C9.47018893,11.9991325 9.48721107,11.9991325 9.5042,12 Z M9.4806,6.99934939 L9.5061,7 L10.4944,7 C10.6747185,6.99744908 10.842442,7.0921867 10.9333457,7.2479358 C11.0242493,7.40368489 11.0242493,7.59631511 10.9333457,7.7520642 C10.842442,7.9078133 10.6747185,8.00255092 10.4944,8 L10.4944,8 L9.5061,8 C9.32745672,8.00912789 9.15751534,7.9222513 9.06029827,7.77209944 C8.96308119,7.62194758 8.95335995,7.43133512 9.03479686,7.27207191 C9.11623377,7.1128087 9.27645498,7.00909382 9.4551,7 C9.47208893,6.99913252 9.48911107,6.99913252 9.5061,7 Z" id="形状结合" fill="#000000"></path>
    </g>
</svg>