<?xml version="1.0" encoding="UTF-8"?>
<svg width="20px" height="20px" viewBox="0 0 20 20" version="1.1" xmlns="http://www.w3.org/2000/svg" xmlns:xlink="http://www.w3.org/1999/xlink">
    <!-- Generator: Sketch 62 (91390) - https://sketch.com -->
    <title>tool_icon_right</title>
    <desc>Created with Sketch.</desc>
    <g id="tool_icon_right" stroke="none" stroke-width="1" fill="none" fill-rule="evenodd">
        <path d="M15.197258,4.77607187 L13.3846068,6.57145641 L18,6.57145641 L18,2.0000279 L16.1823154,3.80039789 C14.7575233,2.64747443 12.9682152,2 11.0769382,2 C6.61616842,2 3,5.581722 3,10 C3,14.418278 6.61616842,18 11.0769382,18 C12.5923786,18 14.0479001,17.5853021 15.3107027,16.8140656 C15.6361579,16.6152991 15.7373097,16.1928465 15.5366315,15.8704915 C15.3359534,15.5481365 14.909438,15.4479482 14.5839828,15.6467148 C13.5381047,16.2854681 12.3338683,16.6285714 11.0769382,16.6285714 C7.38087181,16.6285714 4.38461796,13.6608589 4.38461796,10 C4.38461796,6.33914108 7.38087181,3.37142855 11.0769382,3.37142855 C12.5968244,3.37142855 14.0351006,3.87487033 15.197258,4.77607187 L15.197258,4.77607187 Z M11.0769102,11.1428849 C10.4396574,11.1428849 9.92306187,10.6312104 9.92306187,10.0000278 C9.92306187,9.36884523 10.4396574,8.85717067 11.0769102,8.85717067 C11.714163,8.85717067 12.2307585,9.36884523 12.2307585,10.0000278 C12.2307585,10.6312104 11.714163,11.1428849 11.0769102,11.1428849 L11.0769102,11.1428849 Z" id="Combined-Shape" fill="#000000"></path>
    </g>
</svg>