<?xml version="1.0" encoding="UTF-8"?>
<svg width="17px" height="17px" viewBox="0 0 17 17" version="1.1" xmlns="http://www.w3.org/2000/svg" xmlns:xlink="http://www.w3.org/1999/xlink">
    <!-- Generator: Sketch 58 (84663) - https://sketch.com -->
    <title>button/narrow_dark</title>
    <desc>Created with Sketch.</desc>
    <g id="控件" stroke="none" stroke-width="1" fill="none" fill-rule="evenodd">
        <g id="button/narrow_dark" transform="translate(-17.000000, -17.000000)" fill="#C5CFE0">
            <g transform="translate(17.000000, 17.000000)" id="形状结合">
                <path d="M7.5,0 C11.6421356,0 15,3.35786438 15,7.5 C15,9.21060437 14.4273178,10.7874516 13.4632192,12.0492761 L16.4142136,15 C16.8047379,15.3905243 16.8047379,16.0236893 16.4142136,16.4142136 C16.0236893,16.8047379 15.3905243,16.8047379 15,16.4142136 L12.0492761,13.4632192 C10.7874516,14.4273178 9.21060437,15 7.5,15 C3.35786438,15 0,11.6421356 0,7.5 C0,3.35786438 3.35786438,0 7.5,0 Z M7.5,1 C3.91014913,1 1,3.91014913 1,7.5 C1,11.0898509 3.91014913,14 7.5,14 C11.0898509,14 14,11.0898509 14,7.5 C14,3.91014913 11.0898509,1 7.5,1 Z M12.5,7 C12.7761424,7 13,7.22385763 13,7.5 C13,7.77614237 12.7761424,8 12.5,8 L2.5,8 C2.22385763,8 2,7.77614237 2,7.5 C2,7.22385763 2.22385763,7 2.5,7 L12.5,7 Z"></path>
            </g>
        </g>
    </g>
</svg>