<?xml version="1.0" encoding="UTF-8"?>
<svg width="20px" height="20px" viewBox="0 0 20 20" version="1.1" xmlns="http://www.w3.org/2000/svg" xmlns:xlink="http://www.w3.org/1999/xlink">
    <!-- Generator: Sketch 62 (91390) - https://sketch.com -->
    <title>tool_icon_amplification</title>
    <desc>Created with Sketch.</desc>
    <g id="tool_icon_amplification" stroke="none" stroke-width="1" fill="none" fill-rule="evenodd">
        <path d="M9.5,2 C13.6421356,2 17,5.35786438 17,9.5 C17,11.2106044 16.4273178,12.7874516 15.4632192,14.0492761 L18.4142136,17 C18.8047379,17.3905243 18.8047379,18.0236893 18.4142136,18.4142136 C18.0236893,18.8047379 17.3905243,18.8047379 17,18.4142136 L14.0492761,15.4632192 C12.7874516,16.4273178 11.2106044,17 9.5,17 C5.35786438,17 2,13.6421356 2,9.5 C2,5.35786438 5.35786438,2 9.5,2 Z M9.5,3 C5.91014913,3 3,5.91014913 3,9.5 C3,13.0898509 5.91014913,16 9.5,16 C13.0898509,16 16,13.0898509 16,9.5 C16,5.91014913 13.0898509,3 9.5,3 Z M9.5,4 C9.77614237,4 10,4.22385763 10,4.5 L10,9 L14.5,9 C14.7761424,9 15,9.22385763 15,9.5 C15,9.77614237 14.7761424,10 14.5,10 L10,10 L10,14.5 C10,14.7761424 9.77614237,15 9.5,15 C9.22385763,15 9,14.7761424 9,14.5 L9,10 L4.5,10 C4.22385763,10 4,9.77614237 4,9.5 C4,9.22385763 4.22385763,9 4.5,9 L9,9 L9,4.5 C9,4.22385763 9.22385763,4 9.5,4 Z" id="形状结合" fill="#000000" fill-rule="nonzero"></path>
    </g>
</svg>