<?xml version="1.0" encoding="UTF-8"?>
<svg width="14px" height="14px" viewBox="0 0 14 14" version="1.1" xmlns="http://www.w3.org/2000/svg" xmlns:xlink="http://www.w3.org/1999/xlink">
    <!-- Generator: Sketch 62 (91390) - https://sketch.com -->
    <title>tool_icon_text_scan</title>
    <desc>Created with Sketch.</desc>
    <g id="tool_icon_text_scan" stroke="none" stroke-width="1" fill="none" fill-rule="evenodd">
        <path d="M2.5,8 C2.74545989,8 2.94960837,8.17687516 2.99194433,8.41012437 L3,8.5 L3,11 L5.5,11 C5.74545989,11 5.94960837,11.1768752 5.99194433,11.4101244 L6,11.5 C6,11.7454599 5.82312484,11.9496084 5.58987563,11.9919443 L5.5,12 L2.5,12 C2.25454011,12 2.05039163,11.8231248 2.00805567,11.5898756 L2,11.5 L2,8.5 C2,8.22385763 2.22385763,8 2.5,8 Z M12.5,8 C12.7761424,8 13,8.22385763 13,8.5 L13,8.5 L13,11.5 L12.9919443,11.5898756 C12.9496084,11.8231248 12.7454599,12 12.5,12 L12.5,12 L9.5,12 L9.41012437,11.9919443 C9.17687516,11.9496084 9,11.7454599 9,11.5 L9,11.5 L9.00805567,11.4101244 C9.05039163,11.1768752 9.25454011,11 9.5,11 L9.5,11 L12,11 L12,8.5 L12.0080557,8.41012437 C12.0503916,8.17687516 12.2545401,8 12.5,8 Z M9.5,4 C9.77614237,4 10,4.22385763 10,4.5 C10,4.77614237 9.77614237,5 9.5,5 L8,5 L8,9.5 C8,9.77614237 7.77614237,10 7.5,10 C7.22385763,10 7,9.77614237 7,9.5 L7,5 L5.5,5 C5.22385763,5 5,4.77614237 5,4.5 C5,4.22385763 5.22385763,4 5.5,4 L9.5,4 Z M5.5,1 L5.58987563,1.00805567 C5.82312484,1.05039163 6,1.25454011 6,1.5 L6,1.5 L5.99194433,1.58987563 C5.94960837,1.82312484 5.74545989,2 5.5,2 L5.5,2 L3,2 L3,4.5 L2.99194433,4.58987563 C2.94960837,4.82312484 2.74545989,5 2.5,5 C2.22385763,5 2,4.77614237 2,4.5 L2,4.5 L2,1.5 L2.00805567,1.41012437 C2.05039163,1.17687516 2.25454011,1 2.5,1 L2.5,1 L5.5,1 Z M12.5,1 C12.7454599,1 12.9496084,1.17687516 12.9919443,1.41012437 L13,1.5 L13,4.5 C13,4.77614237 12.7761424,5 12.5,5 C12.2545401,5 12.0503916,4.82312484 12.0080557,4.58987563 L12,4.5 L12,2 L9.5,2 C9.25454011,2 9.05039163,1.82312484 9.00805567,1.58987563 L9,1.5 C9,1.25454011 9.17687516,1.05039163 9.41012437,1.00805567 L9.5,1 L12.5,1 Z" id="形状结合" fill="#536076"></path>
    </g>
</svg>