<?xml version="1.0" encoding="UTF-8"?>
<svg width="14px" height="14px" viewBox="0 0 14 14" version="1.1" xmlns="http://www.w3.org/2000/svg" xmlns:xlink="http://www.w3.org/1999/xlink">
    <!-- Generator: Sketch 62 (91390) - https://sketch.com -->
    <title>list_icon_export</title>
    <desc>Created with Sketch.</desc>
    <g id="list_icon_export" stroke="none" stroke-width="1" fill="none" fill-rule="evenodd">
        <g id="编组" transform="translate(2.500000, 1.500000)" stroke="#536076">
            <path d="M4.5,11 L1,11 C0.44771525,11 0,10.5522847 0,10 L0,1 C0,0.44771525 0.44771525,0 1,0 L6.08578644,0 C6.35100293,0 6.60535684,0.10535684 6.79289322,0.292893219 L8.70710678,2.20710678 C8.89464316,2.39464316 9,2.64899707 9,2.91421356 L9,5.5" id="路径" stroke-linecap="round"></path>
            <polyline id="路径-7" stroke-linejoin="round" points="6 0 6 3 9 3"></polyline>
        </g>
        <polyline id="路径-4" stroke="#536076" stroke-linecap="round" stroke-linejoin="round" points="9.5 6.5 12 9.5 9.5 12.5"></polyline>
        <path d="M11,9 C11.2761424,9 11.5,9.22385763 11.5,9.5 C11.5,9.74545989 11.3231248,9.94960837 11.0898756,9.99194433 L11,10 L6,10 C5.72385763,10 5.5,9.77614237 5.5,9.5 C5.5,9.25454011 5.67687516,9.05039163 5.91012437,9.00805567 L6,9 L11,9 Z" id="直线" fill="#536076" fill-rule="nonzero"></path>
    </g>
</svg>