<?xml version="1.0" encoding="UTF-8"?>
<svg width="22px" height="20px" viewBox="0 0 22 20" version="1.1" xmlns="http://www.w3.org/2000/svg" xmlns:xlink="http://www.w3.org/1999/xlink">
    <!-- Generator: Sketch 58 (84663) - https://sketch.com -->
    <title>形状结合</title>
    <desc>Created with Sketch.</desc>
    <g id="控件" stroke="none" stroke-width="1" fill="none" fill-rule="evenodd">
        <g id="button_Scan" transform="translate(-14.000000, -15.000000)" fill="#FFFFFF">
            <g id="编组-4备份">
                <path d="M15,28 C15.5128358,28 15.9355072,28.3860402 15.9932723,28.8833789 L16,29 L16,33 L20,33 C20.5522847,33 21,33.4477153 21,34 C21,34.5128358 20.6139598,34.9355072 20.1166211,34.9932723 L20,35 L15,35 C14.4871642,35 14.0644928,34.6139598 14.0067277,34.1166211 L14,34 L14,29 C14,28.4477153 14.4477153,28 15,28 Z M35,28 C35.5128358,28 35.9355072,28.3860402 35.9932723,28.8833789 L36,29 L36,34 L35.9932723,34.1166211 C35.9399506,34.575703 35.575703,34.9399506 35.1166211,34.9932723 L35,35 L30,35 L29.8833789,34.9932723 C29.3860402,34.9355072 29,34.5128358 29,34 C29,33.4871642 29.3860402,33.0644928 29.8833789,33.0067277 L30,33 L34,33 L34,29 L34.0067277,28.8833789 C34.0644928,28.3860402 34.4871642,28 35,28 Z M35,24 C35.5522847,24 36,24.4477153 36,25 C36,25.5522847 35.5522847,26 35,26 L15,26 C14.4477153,26 14,25.5522847 14,25 C14,24.4477153 14.4477153,24 15,24 L35,24 Z M20,15 C20.5522847,15 21,15.4477153 21,16 C21,16.5522847 20.5522847,17 20,17 L16,17 L16,21 C16,21.5522847 15.5522847,22 15,22 C14.4477153,22 14,21.5522847 14,21 L14,16 C14,15.4477153 14.4477153,15 15,15 L20,15 Z M35,15 C35.5128358,15 35.9355072,15.3860402 35.9932723,15.8833789 L36,16 L36,21 C36,21.5522847 35.5522847,22 35,22 C34.4871642,22 34.0644928,21.6139598 34.0067277,21.1166211 L34,21 L34,17 L30,17 C29.4477153,17 29,16.5522847 29,16 C29,15.4871642 29.3860402,15.0644928 29.8833789,15.0067277 L30,15 L35,15 Z" id="形状结合"></path>
            </g>
        </g>
    </g>
</svg>