<?xml version="1.0" standalone="no"?><!DOCTYPE svg PUBLIC "-//W3C//DTD SVG 1.1//EN" "http://www.w3.org/Graphics/SVG/1.1/DTD/svg11.dtd"><svg t="1590567635789" class="icon" viewBox="0 0 1024 1024" version="1.1" xmlns="http://www.w3.org/2000/svg" p-id="6494" xmlns:xlink="http://www.w3.org/1999/xlink" width="200" height="200"><defs><style type="text/css"></style></defs><path d="M802.304 964.608H221.696c-82.944 0-150.016-67.072-150.016-150.016v-542.72C71.68 189.44 139.264 121.856 221.696 121.856v64.512c-47.104 0-85.504 38.4-85.504 85.504v542.72c0 47.104 38.4 85.504 85.504 85.504h580.096c47.104 0 85.504-38.4 85.504-85.504v-542.72c0-47.104-38.4-85.504-85.504-85.504V121.856c82.944 0 150.016 67.072 150.016 150.016v542.72c0.512 82.944-67.072 150.016-149.504 150.016z" fill="#2c2c2c" p-id="6495"></path><path d="M735.744 248.832H284.16C231.936 248.832 189.44 206.336 189.44 154.112s42.496-94.72 94.72-94.72h451.584c52.224 0 94.72 42.496 94.72 94.72s-42.496 94.72-94.72 94.72z m-451.584-133.12c-20.992 0-38.4 17.408-38.4 38.4s17.408 38.4 38.4 38.4h451.584c20.992 0 38.4-17.408 38.4-38.4s-17.408-38.4-38.4-38.4H284.16zM736.768 463.36H287.232c-17.408 0-31.744-14.336-31.744-31.744 0-17.408 14.336-31.744 31.744-31.744h449.536c17.408 0 32.256 14.336 32.256 31.744-0.512 16.896-14.848 31.744-32.256 31.744zM736.768 607.232H287.232c-17.408 0-31.744-14.336-31.744-31.744 0-17.408 14.336-32.256 31.744-32.256h449.536c17.408 0 32.256 14.336 32.256 32.256-0.512 17.408-14.848 31.744-32.256 31.744zM736.768 742.912H287.232c-17.408 0-31.744-14.336-31.744-32.256 0-17.408 14.336-31.744 31.744-31.744h449.536c17.408 0 32.256 14.336 32.256 31.744-0.512 17.92-14.848 32.256-32.256 32.256z" fill="#2c2c2c" p-id="6496"></path></svg>