<?xml version="1.0" encoding="UTF-8"?>
<svg width="96px" height="96px" viewBox="0 0 96 96" version="1.1" xmlns="http://www.w3.org/2000/svg" xmlns:xlink="http://www.w3.org/1999/xlink">
    <!-- Generator: Sketch 62 (91390) - https://sketch.com -->
    <title>扫描仪-96</title>
    <desc>Created with Sketch.</desc>
    <defs>
        <filter x="-19.1%" y="-13.5%" width="139.3%" height="127.0%" filterUnits="objectBoundingBox" id="filter-1">
            <feOffset dx="0" dy="2" in="SourceAlpha" result="shadowOffsetOuter1"></feOffset>
            <feGaussianBlur stdDeviation="2" in="shadowOffsetOuter1" result="shadowBlurOuter1"></feGaussianBlur>
            <feComposite in="shadowBlurOuter1" in2="SourceAlpha" operator="out" result="shadowBlurOuter1"></feComposite>
            <feColorMatrix values="0 0 0 0 0   0 0 0 0 0   0 0 0 0 0  0 0 0 0.2 0" type="matrix" in="shadowBlurOuter1" result="shadowMatrixOuter1"></feColorMatrix>
            <feMerge>
                <feMergeNode in="shadowMatrixOuter1"></feMergeNode>
                <feMergeNode in="SourceGraphic"></feMergeNode>
            </feMerge>
        </filter>
        <linearGradient x1="50%" y1="0%" x2="50%" y2="100%" id="linearGradient-2">
            <stop stop-color="#0ECB04" offset="0%"></stop>
            <stop stop-color="#008972" offset="100%"></stop>
        </linearGradient>
        <filter x="-22.6%" y="-26.4%" width="145.2%" height="150.9%" filterUnits="objectBoundingBox" id="filter-3">
            <feOffset dx="0" dy="2" in="SourceAlpha" result="shadowOffsetOuter1"></feOffset>
            <feGaussianBlur stdDeviation="2.5" in="shadowOffsetOuter1" result="shadowBlurOuter1"></feGaussianBlur>
            <feColorMatrix values="0 0 0 0 0   0 0 0 0 0   0 0 0 0 0  0 0 0 0.21 0" type="matrix" in="shadowBlurOuter1" result="shadowMatrixOuter1"></feColorMatrix>
            <feMerge>
                <feMergeNode in="shadowMatrixOuter1"></feMergeNode>
                <feMergeNode in="SourceGraphic"></feMergeNode>
            </feMerge>
        </filter>
        <path d="M22.5,17 L49.5,17 C53.6421356,17 57,20.3578644 57,24.5 L57,47.5 C57,51.6421356 53.6421356,55 49.5,55 L22.5,55 C18.3578644,55 15,51.6421356 15,47.5 L15,24.5 C15,20.3578644 18.3578644,17 22.5,17 Z" id="path-4"></path>
        <mask id="mask-5" maskContentUnits="userSpaceOnUse" maskUnits="objectBoundingBox" x="0" y="0" width="42" height="38" fill="white">
            <use xlink:href="#path-4"></use>
        </mask>
        <linearGradient x1="50%" y1="0%" x2="50%" y2="100%" id="linearGradient-6">
            <stop stop-color="#C3FFBF" stop-opacity="0.305015297" offset="0%"></stop>
            <stop stop-color="#83E991" stop-opacity="0.778791521" offset="100%"></stop>
        </linearGradient>
        <linearGradient x1="84.4802726%" y1="31.407341%" x2="44.517753%" y2="76.6988728%" id="linearGradient-7">
            <stop stop-color="#FFFFFF" offset="0%"></stop>
            <stop stop-color="#D6DDF6" offset="100%"></stop>
        </linearGradient>
        <linearGradient x1="72.5830172%" y1="28.0308378%" x2="50%" y2="79.0249433%" id="linearGradient-8">
            <stop stop-color="#FFFFFF" offset="0%"></stop>
            <stop stop-color="#D7FFC6" offset="100%"></stop>
        </linearGradient>
        <radialGradient cx="52.3239218%" cy="53.481434%" fx="52.3239218%" fy="53.481434%" r="63.7007328%" gradientTransform="translate(0.523239,0.534814),scale(0.877005,1.000000),rotate(121.960089),scale(1.000000,1.264710),translate(-0.523239,-0.534814)" id="radialGradient-9">
            <stop stop-color="#000000" offset="0%"></stop>
            <stop stop-color="#000000" stop-opacity="0.148218969" offset="100%"></stop>
        </radialGradient>
        <linearGradient x1="69.3330099%" y1="71.0965544%" x2="56.8323603%" y2="57.7013487%" id="linearGradient-10">
            <stop stop-color="#C6C6C6" offset="0%"></stop>
            <stop stop-color="#E7E7E7" offset="53.0517663%"></stop>
            <stop stop-color="#F4F4F4" offset="100%"></stop>
        </linearGradient>
        <path d="M55.875,-1.125 C55.875,-1.125 54.7959241,3.29805752 53.8582317,4.81117021 C52.3736006,7.20685367 50.6890244,6.63031915 49.3445122,8.64095745 C48,10.6515957 48.5053729,12.1139408 45.4070122,14.768617 C43.7465909,16.1912665 40.125,16.875 40.125,16.875 C49.7696629,16.875 55.875,5.80305755 55.875,-1.125 Z" id="path-11"></path>
        <filter x="-12.7%" y="-5.6%" width="125.4%" height="122.2%" filterUnits="objectBoundingBox" id="filter-12">
            <feOffset dx="0" dy="1" in="SourceAlpha" result="shadowOffsetOuter1"></feOffset>
            <feGaussianBlur stdDeviation="0.5" in="shadowOffsetOuter1" result="shadowBlurOuter1"></feGaussianBlur>
            <feColorMatrix values="0 0 0 0 0   0 0 0 0 0   0 0 0 0 0  0 0 0 0.05 0" type="matrix" in="shadowBlurOuter1"></feColorMatrix>
        </filter>
        <linearGradient x1="80.4721539%" y1="29.2045642%" x2="50%" y2="73.6328125%" id="linearGradient-13">
            <stop stop-color="#000000" stop-opacity="0.0351835664" offset="0%"></stop>
            <stop stop-color="#000000" stop-opacity="0.08" offset="100%"></stop>
        </linearGradient>
        <radialGradient cx="50%" cy="50%" fx="50%" fy="50%" r="94.5776543%" gradientTransform="translate(0.500000,0.500000),scale(0.458763,1.000000),scale(1.000000,0.304672),translate(-0.500000,-0.500000)" id="radialGradient-14">
            <stop stop-color="#EBFF26" offset="0%"></stop>
            <stop stop-color="#F2FF3D" stop-opacity="0" offset="100%"></stop>
        </radialGradient>
        <filter x="-3.9%" y="-8.4%" width="107.7%" height="116.9%" filterUnits="objectBoundingBox" id="filter-15">
            <feGaussianBlur stdDeviation="0.9375" in="SourceGraphic"></feGaussianBlur>
        </filter>
        <radialGradient cx="50%" cy="50%" fx="50%" fy="50%" r="520.710277%" gradientTransform="translate(0.500000,0.500000),scale(0.094512,1.000000),scale(1.000000,0.071987),translate(-0.500000,-0.500000)" id="radialGradient-16">
            <stop stop-color="#F7FF81" stop-opacity="0.995473976" offset="0%"></stop>
            <stop stop-color="#F8FF98" stop-opacity="0" offset="100%"></stop>
        </radialGradient>
        <radialGradient cx="50%" cy="50%" fx="50%" fy="50%" r="1628.5185%" gradientTransform="translate(0.500000,0.500000),scale(0.030220,1.000000),scale(1.000000,0.013063),translate(-0.500000,-0.500000)" id="radialGradient-17">
            <stop stop-color="#FFFFFF" stop-opacity="0.995473976" offset="0%"></stop>
            <stop stop-color="#FFFFFF" stop-opacity="0" offset="100%"></stop>
        </radialGradient>
        <linearGradient x1="0%" y1="50%" x2="99.2134713%" y2="50%" id="linearGradient-18">
            <stop stop-color="#FFFFFF" stop-opacity="0" offset="0%"></stop>
            <stop stop-color="#FFFFFF" stop-opacity="0.891541755" offset="49.7980275%"></stop>
            <stop stop-color="#FFFFFF" stop-opacity="0" offset="100%"></stop>
        </linearGradient>
    </defs>
    <g id="扫描仪-96" stroke="none" stroke-width="1" fill="none" fill-rule="evenodd">
        <g id="编组-2" filter="url(#filter-1)" transform="translate(3.750000, 3.750000)">
            <circle id="椭圆形" fill="url(#linearGradient-2)" cx="44.25" cy="44.25" r="44"></circle>
            <g id="编组" filter="url(#filter-3)" transform="translate(8.250000, 16.250000)">
                <use id="矩形备份-3" stroke-opacity="0.703316215" stroke="#96FF8F" mask="url(#mask-5)" stroke-width="2" fill="#0EA141" stroke-dasharray="1,1" xlink:href="#path-4"></use>
                <path d="M47,46 C47.4142136,46 47.75,46.3357864 47.75,46.75 L47.75,47.25 C47.75,47.6642136 47.4142136,48 47,48 L33.5,48 C33.0857864,48 32.75,47.6642136 32.75,47.25 L32.75,46.75 C32.75,46.3357864 33.0857864,46 33.5,46 L47,46 Z M29,46 C29.4142136,46 29.75,46.3357864 29.75,46.75 L29.75,47.25 C29.75,47.6642136 29.4142136,48 29,48 L20.75,48 C20.3357864,48 20,47.6642136 20,47.25 L20,46.75 C20,46.3357864 20.3357864,46 20.75,46 L29,46 Z M41.75,42 C42.1642136,42 42.5,42.3357864 42.5,42.75 L42.5,43.25 C42.5,43.6642136 42.1642136,44 41.75,44 L20.75,44 C20.3357864,44 20,43.6642136 20,43.25 L20,42.75 C20,42.3357864 20.3357864,42 20.75,42 L41.75,42 Z M23.75,38 C24.1642136,38 24.5,38.3357864 24.5,38.75 L24.5,39.25 C24.5,39.6642136 24.1642136,40 23.75,40 L20.75,40 C20.3357864,40 20,39.6642136 20,39.25 L20,38.75 C20,38.3357864 20.3357864,38 20.75,38 L23.75,38 Z M38,38 C38.4142136,38 38.75,38.3357864 38.75,38.75 L38.75,39.25 C38.75,39.6642136 38.4142136,40 38,40 L28.25,40 C27.8357864,40 27.5,39.6642136 27.5,39.25 L27.5,38.75 C27.5,38.3357864 27.8357864,38 28.25,38 L38,38 Z M52.25,38 C52.6642136,38 53,38.3357864 53,38.75 L53,39.25 C53,39.6642136 52.6642136,40 52.25,40 L42.5,40 C42.0857864,40 41.75,39.6642136 41.75,39.25 L41.75,38.75 C41.75,38.3357864 42.0857864,38 42.5,38 L52.25,38 Z M44,34 C44.4142136,34 44.75,34.3357864 44.75,34.75 L44.75,35.25 C44.75,35.6642136 44.4142136,36 44,36 L20.75,36 C20.3357864,36 20,35.6642136 20,35.25 L20,34.75 C20,34.3357864 20.3357864,34 20.75,34 L44,34 Z" id="形状结合备份-2" fill="url(#linearGradient-6)" opacity="0.359375"></path>
                <path d="M22.5,0 L42.9078947,0 L42.9078947,0 C45.401265,0.913748749 48.1951247,2.72217787 51.2894737,5.42528736 C54.2368421,8 56.1403509,11.2183908 57,15.0804598 L57,32 L15,32 L15,7.5 C15,3.35786438 18.3578644,7.6089797e-16 22.5,0 Z" id="矩形备份-5" fill="url(#linearGradient-7)"></path>
                <path d="M22.5,0 L49.5,0 C53.6421356,-7.6089797e-16 57,3.35786438 57,7.5 L57,32 L57,32 L15,32 L15,7.5 C15,3.35786438 18.3578644,7.6089797e-16 22.5,0 Z" id="矩形备份-2" fill="url(#linearGradient-8)"></path>
                <path d="M39.5,-9.50350909e-14 L49.53125,-9.50350909e-14 C53.6733856,-9.57959889e-14 57.03125,3.35786438 57.03125,7.5 L57.03125,15.375 L57.03125,15.375 C56.34375,11.3125 54.03125,7.8125 50.09375,4.875 C46.6586596,2.31231351 43.1274096,0.687313505 39.5,-9.50350909e-14 Z" id="路径" fill-opacity="0.28" fill="url(#radialGradient-9)"></path>
                <g id="路径-11" transform="translate(48.000000, 7.875000) rotate(-90.000000) translate(-48.000000, -7.875000) ">
                    <use fill="black" fill-opacity="1" filter="url(#filter-12)" xlink:href="#path-11"></use>
                    <use fill="url(#linearGradient-10)" fill-rule="evenodd" xlink:href="#path-11"></use>
                </g>
                <path d="M29,23 C29.4142136,23 29.75,23.3357864 29.75,23.75 L29.75,28.25 C29.75,28.6642136 29.4142136,29 29,29 L20.75,29 C20.3357864,29 20,28.6642136 20,28.25 L20,23.75 C20,23.3357864 20.3357864,23 20.75,23 L29,23 Z M51.25,27 C51.6642136,27 52,27.3357864 52,27.75 L52,28.25 C52,28.6642136 51.6642136,29 51.25,29 L33.75,29 C33.3357864,29 33,28.6642136 33,28.25 L33,27.75 C33,27.3357864 33.3357864,27 33.75,27 L51.25,27 Z M48,23 C48.4142136,23 48.75,23.3357864 48.75,23.75 L48.75,24.25 C48.75,24.6642136 48.4142136,25 48,25 L33.75,25 C33.3357864,25 33,24.6642136 33,24.25 L33,23.75 C33,23.3357864 33.3357864,23 33.75,23 L48,23 Z M24.25,19 C24.6642136,19 25,19.3357864 25,19.75 L25,20.25 C25,20.6642136 24.6642136,21 24.25,21 L20.75,21 C20.3357864,21 20,20.6642136 20,20.25 L20,19.75 C20,19.3357864 20.3357864,19 20.75,19 L24.25,19 Z M51.25,19 C51.6642136,19 52,19.3357864 52,19.75 L52,20.25 C52,20.6642136 51.6642136,21 51.25,21 L28.75,21 C28.3357864,21 28,20.6642136 28,20.25 L28,19.75 C28,19.3357864 28.3357864,19 28.75,19 L51.25,19 Z M33.25,15 C33.6642136,15 34,15.3357864 34,15.75 L34,16.25 C34,16.6642136 33.6642136,17 33.25,17 L20.75,17 C20.3357864,17 20,16.6642136 20,16.25 L20,15.75 C20,15.3357864 20.3357864,15 20.75,15 L33.25,15 Z M51.25,11 C51.6642136,11 52,11.3357864 52,11.75 L52,16.25 C52,16.6642136 51.6642136,17 51.25,17 L37.75,17 C37.3357864,17 37,16.6642136 37,16.25 L37,11.75 C37,11.3357864 37.3357864,11 37.75,11 L51.25,11 Z M33.25,11 C33.6642136,11 34,11.3357864 34,11.75 L34,12.25 C34,12.6642136 33.6642136,13 33.25,13 L20.75,13 C20.3357864,13 20,12.6642136 20,12.25 L20,11.75 C20,11.3357864 20.3357864,11 20.75,11 L33.25,11 Z M47.25,7 C47.6642136,7 48,7.33578644 48,7.75 L48,8.25 C48,8.66421356 47.6642136,9 47.25,9 L37.75,9 C37.3357864,9 37,8.66421356 37,8.25 L37,7.75 C37,7.33578644 37.3357864,7 37.75,7 L47.25,7 Z M33.25,7 C33.6642136,7 34,7.33578644 34,7.75 L34,8.25 C34,8.66421356 33.6642136,9 33.25,9 L20.75,9 C20.3357864,9 20,8.66421356 20,8.25 L20,7.75 C20,7.33578644 20.3357864,7 20.75,7 L33.25,7 Z" id="形状结合备份" fill="url(#linearGradient-13)"></path>
                <g id="编组-3" transform="translate(0.000000, 15.125000)">
                    <polygon id="矩形" fill="url(#radialGradient-14)" opacity="0.799153646" filter="url(#filter-15)" points="0 14.8623047 36.375 0 72.75 13.2978516 72.75 20.5986328 36.84375 33.375 0 22.1630859"></polygon>
                    <rect id="矩形备份-7" fill="url(#radialGradient-16)" x="5.625" y="13.875" width="61.5" height="5.8125"></rect>
                    <rect id="矩形备份-10" fill="url(#radialGradient-17)" opacity="0.95265997" x="2.25" y="15.75" width="68.25" height="2.0625"></rect>
                    <rect id="矩形备份-22" fill="url(#linearGradient-18)" opacity="0.95265997" x="15.75" y="16.5" width="41.25" height="1"></rect>
                </g>
            </g>
        </g>
    </g>
</svg>