<?xml version="1.0" encoding="UTF-8"?>
<svg width="48px" height="48px" viewBox="0 0 48 48" version="1.1" xmlns="http://www.w3.org/2000/svg" xmlns:xlink="http://www.w3.org/1999/xlink">
    <!-- Generator: Sketch 62 (91390) - https://sketch.com -->
    <title>扫描仪-48</title>
    <desc>Created with Sketch.</desc>
    <defs>
        <filter x="-23.9%" y="-14.8%" width="147.7%" height="129.5%" filterUnits="objectBoundingBox" id="filter-1">
            <feOffset dx="0" dy="1" in="SourceAlpha" result="shadowOffsetOuter1"></feOffset>
            <feGaussianBlur stdDeviation="1" in="shadowOffsetOuter1" result="shadowBlurOuter1"></feGaussianBlur>
            <feComposite in="shadowBlurOuter1" in2="SourceAlpha" operator="out" result="shadowBlurOuter1"></feComposite>
            <feColorMatrix values="0 0 0 0 0   0 0 0 0 0   0 0 0 0 0  0 0 0 0.2 0" type="matrix" in="shadowBlurOuter1" result="shadowMatrixOuter1"></feColorMatrix>
            <feMerge>
                <feMergeNode in="shadowMatrixOuter1"></feMergeNode>
                <feMergeNode in="SourceGraphic"></feMergeNode>
            </feMerge>
        </filter>
        <linearGradient x1="50%" y1="0%" x2="50%" y2="100%" id="linearGradient-2">
            <stop stop-color="#0ECB04" offset="0%"></stop>
            <stop stop-color="#008972" offset="100%"></stop>
        </linearGradient>
        <filter x="-27.0%" y="-32.1%" width="151.4%" height="160.7%" filterUnits="objectBoundingBox" id="filter-3">
            <feOffset dx="0" dy="1" in="SourceAlpha" result="shadowOffsetOuter1"></feOffset>
            <feGaussianBlur stdDeviation="1.5" in="shadowOffsetOuter1" result="shadowBlurOuter1"></feGaussianBlur>
            <feColorMatrix values="0 0 0 0 0   0 0 0 0 0   0 0 0 0 0  0 0 0 0.21 0" type="matrix" in="shadowBlurOuter1" result="shadowMatrixOuter1"></feColorMatrix>
            <feMerge>
                <feMergeNode in="shadowMatrixOuter1"></feMergeNode>
                <feMergeNode in="SourceGraphic"></feMergeNode>
            </feMerge>
        </filter>
        <path d="M10.75,9 L25.25,9 C27.3210678,9 29,10.6789322 29,12.75 L29,24.25 C29,26.3210678 27.3210678,28 25.25,28 L10.75,28 C8.67893219,28 7,26.3210678 7,24.25 L7,12.75 C7,10.6789322 8.67893219,9 10.75,9 Z" id="path-4"></path>
        <mask id="mask-5" maskContentUnits="userSpaceOnUse" maskUnits="objectBoundingBox" x="0" y="0" width="22" height="19" fill="white">
            <use xlink:href="#path-4"></use>
        </mask>
        <linearGradient x1="50%" y1="0%" x2="50%" y2="100%" id="linearGradient-6">
            <stop stop-color="#C3FFBF" stop-opacity="0.305015297" offset="0%"></stop>
            <stop stop-color="#83E991" stop-opacity="0.778791521" offset="100%"></stop>
        </linearGradient>
        <linearGradient x1="84.4802726%" y1="33.0591681%" x2="44.517753%" y2="74.3268655%" id="linearGradient-7">
            <stop stop-color="#FFFFFF" offset="0%"></stop>
            <stop stop-color="#D6DDF6" offset="100%"></stop>
        </linearGradient>
        <linearGradient x1="72.5830172%" y1="29.9826435%" x2="50%" y2="76.446281%" id="linearGradient-8">
            <stop stop-color="#FFFFFF" offset="0%"></stop>
            <stop stop-color="#D7FFC6" offset="100%"></stop>
        </linearGradient>
        <radialGradient cx="52.3239218%" cy="53.481434%" fx="52.3239218%" fy="53.481434%" r="62.5142453%" gradientTransform="translate(0.523239,0.534814),scale(0.941176,1.000000),rotate(120.172113),scale(1.000000,1.264710),translate(-0.523239,-0.534814)" id="radialGradient-9">
            <stop stop-color="#000000" offset="0%"></stop>
            <stop stop-color="#000000" stop-opacity="0.148218969" offset="100%"></stop>
        </radialGradient>
        <linearGradient x1="69.9516273%" y1="71.0965544%" x2="57.0509821%" y2="57.7013487%" id="linearGradient-10">
            <stop stop-color="#C6C6C6" offset="0%"></stop>
            <stop stop-color="#E7E7E7" offset="53.0517663%"></stop>
            <stop stop-color="#F4F4F4" offset="100%"></stop>
        </linearGradient>
        <path d="M28.5,-0.5 C28.5,-0.5 27.951898,1.71152876 27.4756098,2.46808511 C26.7215114,3.66592683 25.8658537,3.37765957 25.1829268,4.38297872 C24.5,5.38829787 24.7566973,6.11947038 23.1829268,7.44680851 C22.3395382,8.15813324 20.5,8.5 20.5,8.5 C25.3988764,8.5 28.5,2.96402878 28.5,-0.5 Z" id="path-11"></path>
        <filter x="-25.0%" y="-11.1%" width="150.0%" height="144.4%" filterUnits="objectBoundingBox" id="filter-12">
            <feOffset dx="0" dy="1" in="SourceAlpha" result="shadowOffsetOuter1"></feOffset>
            <feGaussianBlur stdDeviation="0.5" in="shadowOffsetOuter1" result="shadowBlurOuter1"></feGaussianBlur>
            <feColorMatrix values="0 0 0 0 0   0 0 0 0 0   0 0 0 0 0  0 0 0 0.05 0" type="matrix" in="shadowBlurOuter1"></feColorMatrix>
        </filter>
        <linearGradient x1="80.4721539%" y1="29.2045642%" x2="50%" y2="73.6328125%" id="linearGradient-13">
            <stop stop-color="#000000" stop-opacity="0.0351835664" offset="0%"></stop>
            <stop stop-color="#000000" stop-opacity="0.08" offset="100%"></stop>
        </linearGradient>
        <radialGradient cx="50%" cy="50%" fx="50%" fy="50%" r="94.5776543%" gradientTransform="translate(0.500000,0.500000),scale(0.458763,1.000000),scale(1.000000,0.304672),translate(-0.500000,-0.500000)" id="radialGradient-14">
            <stop stop-color="#EBFF26" offset="0%"></stop>
            <stop stop-color="#F2FF3D" stop-opacity="0" offset="100%"></stop>
        </radialGradient>
        <filter x="-3.9%" y="-8.4%" width="107.7%" height="116.9%" filterUnits="objectBoundingBox" id="filter-15">
            <feGaussianBlur stdDeviation="0.46875" in="SourceGraphic"></feGaussianBlur>
        </filter>
        <radialGradient cx="50%" cy="50%" fx="50%" fy="50%" r="520.710277%" gradientTransform="translate(0.500000,0.500000),scale(0.094512,1.000000),scale(1.000000,0.071987),translate(-0.500000,-0.500000)" id="radialGradient-16">
            <stop stop-color="#F7FF81" stop-opacity="0.995473976" offset="0%"></stop>
            <stop stop-color="#F8FF98" stop-opacity="0" offset="100%"></stop>
        </radialGradient>
        <radialGradient cx="50%" cy="50%" fx="50%" fy="50%" r="1628.5185%" gradientTransform="translate(0.500000,0.500000),scale(0.030220,1.000000),scale(1.000000,0.013063),translate(-0.500000,-0.500000)" id="radialGradient-17">
            <stop stop-color="#FFFFFF" stop-opacity="0.995473976" offset="0%"></stop>
            <stop stop-color="#FFFFFF" stop-opacity="0" offset="100%"></stop>
        </radialGradient>
        <linearGradient x1="0%" y1="50%" x2="99.2134713%" y2="50%" id="linearGradient-18">
            <stop stop-color="#FFFFFF" stop-opacity="0" offset="0%"></stop>
            <stop stop-color="#FFFFFF" stop-opacity="0.891541755" offset="49.7980275%"></stop>
            <stop stop-color="#FFFFFF" stop-opacity="0" offset="100%"></stop>
        </linearGradient>
    </defs>
    <g id="扫描仪-48" stroke="none" stroke-width="1" fill="none" fill-rule="evenodd">
        <g id="编组-2" filter="url(#filter-1)" transform="translate(2.000000, 2.000000)">
            <circle id="椭圆形" fill="url(#linearGradient-2)" cx="22" cy="22" r="22"></circle>
            <g id="编组" filter="url(#filter-3)" transform="translate(4.000000, 8.000000)">
                <use id="矩形备份-3" stroke-opacity="0.703316215" stroke="#96FF8F" mask="url(#mask-5)" stroke-width="2" fill="#0EA141" stroke-dasharray="1,1" xlink:href="#path-4"></use>
                <path d="M23.625,23 C23.8321068,23 24,23.1678932 24,23.375 L24,23.625 C24,23.8321068 23.8321068,24 23.625,24 L17.375,24 C17.1678932,24 17,23.8321068 17,23.625 L17,23.375 C17,23.1678932 17.1678932,23 17.375,23 L23.625,23 Z M14.625,23 C14.8321068,23 15,23.1678932 15,23.375 L15,23.625 C15,23.8321068 14.8321068,24 14.625,24 L10.375,24 C10.1678932,24 10,23.8321068 10,23.625 L10,23.375 C10,23.1678932 10.1678932,23 10.375,23 L14.625,23 Z M20.625,21 C20.8321068,21 21,21.1678932 21,21.375 L21,21.625 C21,21.8321068 20.8321068,22 20.625,22 L10.375,22 C10.1678932,22 10,21.8321068 10,21.625 L10,21.375 C10,21.1678932 10.1678932,21 10.375,21 L20.625,21 Z M11.625,19 C11.8321068,19 12,19.1678932 12,19.375 L12,19.625 C12,19.8321068 11.8321068,20 11.625,20 L10.375,20 C10.1678932,20 10,19.8321068 10,19.625 L10,19.375 C10,19.1678932 10.1678932,19 10.375,19 L11.625,19 Z M19.625,19 C19.8321068,19 20,19.1678932 20,19.375 L20,19.625 C20,19.8321068 19.8321068,20 19.625,20 L14.375,20 C14.1678932,20 14,19.8321068 14,19.625 L14,19.375 C14,19.1678932 14.1678932,19 14.375,19 L19.625,19 Z M25.625,19 C25.8321068,19 26,19.1678932 26,19.375 L26,19.625 C26,19.8321068 25.8321068,20 25.625,20 L21.375,20 C21.1678932,20 21,19.8321068 21,19.625 L21,19.375 C21,19.1678932 21.1678932,19 21.375,19 L25.625,19 Z M21.625,17 C21.8321068,17 22,17.1678932 22,17.375 L22,17.625 C22,17.8321068 21.8321068,18 21.625,18 L10.375,18 C10.1678932,18 10,17.8321068 10,17.625 L10,17.375 C10,17.1678932 10.1678932,17 10.375,17 L21.625,17 Z" id="形状结合备份-2" fill="url(#linearGradient-6)" opacity="0.359375"></path>
                <path d="M10.75,0 L21.6184211,0 L21.6184211,0 C22.9244722,0.456874375 24.3879224,1.36108893 26.0087719,2.71264368 C27.5526316,4 28.5497076,5.6091954 29,7.54022989 L29,16 L7,16 L7,3.75 C7,1.67893219 8.67893219,-6.36402249e-17 10.75,0 Z" id="矩形备份-5" fill="url(#linearGradient-7)"></path>
                <path d="M10.75,0 L25.25,0 C27.3210678,-3.80448985e-16 29,1.67893219 29,3.75 L29,16 L29,16 L7,16 L7,3.75 C7,1.67893219 8.67893219,3.80448985e-16 10.75,0 Z" id="矩形备份-2" fill="url(#linearGradient-8)"></path>
                <path d="M20.5,0 L25.25,0 C27.3210678,-3.80448985e-16 29,1.67893219 29,3.75 L29,8 L29,8 C28.6862745,5.88617886 27.631016,4.06504065 25.8342246,2.53658537 C24.2666967,1.20315499 22.4886218,0.357626539 20.5,0 Z" id="路径" fill-opacity="0.28" fill="url(#radialGradient-9)"></path>
                <g id="路径-11" transform="translate(24.500000, 4.000000) rotate(-90.000000) translate(-24.500000, -4.000000) ">
                    <use fill="black" fill-opacity="1" filter="url(#filter-12)" xlink:href="#path-11"></use>
                    <use fill="url(#linearGradient-10)" fill-rule="evenodd" xlink:href="#path-11"></use>
                </g>
                <path d="M14.625,11 C14.8321068,11 15,11.1678932 15,11.375 L15,13.625 C15,13.8321068 14.8321068,14 14.625,14 L10.375,14 C10.1678932,14 10,13.8321068 10,13.625 L10,11.375 C10,11.1678932 10.1678932,11 10.375,11 L14.625,11 Z M25.625,13 C25.8321068,13 26,13.1678932 26,13.375 L26,13.625 C26,13.8321068 25.8321068,14 25.625,14 L17.375,14 C17.1678932,14 17,13.8321068 17,13.625 L17,13.375 C17,13.1678932 17.1678932,13 17.375,13 L25.625,13 Z M24.625,11 C24.8321068,11 25,11.1678932 25,11.375 L25,11.625 C25,11.8321068 24.8321068,12 24.625,12 L17.375,12 C17.1678932,12 17,11.8321068 17,11.625 L17,11.375 C17,11.1678932 17.1678932,11 17.375,11 L24.625,11 Z M12.125,9 C12.3321068,9 12.5,9.16789322 12.5,9.375 L12.5,9.625 C12.5,9.83210678 12.3321068,10 12.125,10 L10.375,10 C10.1678932,10 10,9.83210678 10,9.625 L10,9.375 C10,9.16789322 10.1678932,9 10.375,9 L12.125,9 Z M25.625,9 C25.8321068,9 26,9.16789322 26,9.375 L26,9.625 C26,9.83210678 25.8321068,10 25.625,10 L14.375,10 C14.1678932,10 14,9.83210678 14,9.625 L14,9.375 C14,9.16789322 14.1678932,9 14.375,9 L25.625,9 Z M16.625,7 C16.8321068,7 17,7.16789322 17,7.375 L17,7.625 C17,7.83210678 16.8321068,8 16.625,8 L10.375,8 C10.1678932,8 10,7.83210678 10,7.625 L10,7.375 C10,7.16789322 10.1678932,7 10.375,7 L16.625,7 Z M25.625,5 C25.8321068,5 26,5.16789322 26,5.375 L26,7.625 C26,7.83210678 25.8321068,8 25.625,8 L19.375,8 C19.1678932,8 19,7.83210678 19,7.625 L19,5.375 C19,5.16789322 19.1678932,5 19.375,5 L25.625,5 Z M16.625,5 C16.8321068,5 17,5.16789322 17,5.375 L17,5.625 C17,5.83210678 16.8321068,6 16.625,6 L10.375,6 C10.1678932,6 10,5.83210678 10,5.625 L10,5.375 C10,5.16789322 10.1678932,5 10.375,5 L16.625,5 Z M24.125,3 C24.3321068,3 24.5,3.16789322 24.5,3.375 L24.5,3.625 C24.5,3.83210678 24.3321068,4 24.125,4 L19.375,4 C19.1678932,4 19,3.83210678 19,3.625 L19,3.375 C19,3.16789322 19.1678932,3 19.375,3 L24.125,3 Z M16.625,3 C16.8321068,3 17,3.16789322 17,3.375 L17,3.625 C17,3.83210678 16.8321068,4 16.625,4 L10.375,4 C10.1678932,4 10,3.83210678 10,3.625 L10,3.375 C10,3.16789322 10.1678932,3 10.375,3 L16.625,3 Z" id="形状结合备份" fill="url(#linearGradient-13)"></path>
                <g id="编组-3" transform="translate(0.000000, 7.562500)">
                    <polygon id="矩形" fill="url(#radialGradient-14)" opacity="0.799153646" filter="url(#filter-15)" points="0 7.43115234 18.1875 0 36.375 6.64892578 36.375 10.2993164 18.421875 16.6875 0 11.081543"></polygon>
                    <rect id="矩形备份-7" fill="url(#radialGradient-16)" x="2.8125" y="6.9375" width="30.75" height="2.90625"></rect>
                    <rect id="矩形备份-10" fill="url(#radialGradient-17)" opacity="0.95265997" x="1.125" y="7.875" width="34.125" height="1.03125"></rect>
                    <rect id="矩形备份-22" fill="url(#linearGradient-18)" opacity="0.95265997" x="7.875" y="8.25" width="20.625" height="1"></rect>
                </g>
            </g>
        </g>
    </g>
</svg>