<?xml version="1.0" encoding="UTF-8"?>
<svg width="32px" height="32px" viewBox="0 0 32 32" version="1.1" xmlns="http://www.w3.org/2000/svg" xmlns:xlink="http://www.w3.org/1999/xlink">
    <!-- Generator: Sketch 62 (91390) - https://sketch.com -->
    <title>扫描仪-32</title>
    <desc>Created with Sketch.</desc>
    <defs>
        <filter x="-23.3%" y="-20.0%" width="150.0%" height="133.3%" filterUnits="objectBoundingBox" id="filter-1">
            <feOffset dx="0" dy="1" in="SourceAlpha" result="shadowOffsetOuter1"></feOffset>
            <feGaussianBlur stdDeviation="0.5" in="shadowOffsetOuter1" result="shadowBlurOuter1"></feGaussianBlur>
            <feComposite in="shadowBlurOuter1" in2="SourceAlpha" operator="out" result="shadowBlurOuter1"></feComposite>
            <feColorMatrix values="0 0 0 0 0   0 0 0 0 0   0 0 0 0 0  0 0 0 0.15 0" type="matrix" in="shadowBlurOuter1" result="shadowMatrixOuter1"></feColorMatrix>
            <feMerge>
                <feMergeNode in="shadowMatrixOuter1"></feMergeNode>
                <feMergeNode in="SourceGraphic"></feMergeNode>
            </feMerge>
        </filter>
        <linearGradient x1="50%" y1="0%" x2="50%" y2="100%" id="linearGradient-2">
            <stop stop-color="#0ECB04" offset="0%"></stop>
            <stop stop-color="#008972" offset="100%"></stop>
        </linearGradient>
        <filter x="-30.0%" y="-37.5%" width="160.0%" height="170.0%" filterUnits="objectBoundingBox" id="filter-3">
            <feOffset dx="0" dy="1" in="SourceAlpha" result="shadowOffsetOuter1"></feOffset>
            <feGaussianBlur stdDeviation="1" in="shadowOffsetOuter1" result="shadowBlurOuter1"></feGaussianBlur>
            <feColorMatrix values="0 0 0 0 0   0 0 0 0 0   0 0 0 0 0  0 0 0 0.21 0" type="matrix" in="shadowBlurOuter1" result="shadowMatrixOuter1"></feColorMatrix>
            <feMerge>
                <feMergeNode in="shadowMatrixOuter1"></feMergeNode>
                <feMergeNode in="SourceGraphic"></feMergeNode>
            </feMerge>
        </filter>
        <path d="M7.5,6.5 L16.5,6.5 C17.8807119,6.5 19,7.61928813 19,9 L19,17 C19,18.3807119 17.8807119,19.5 16.5,19.5 L7.5,19.5 C6.11928813,19.5 5,18.3807119 5,17 L5,9 C5,7.61928813 6.11928813,6.5 7.5,6.5 Z" id="path-4"></path>
        <mask id="mask-5" maskContentUnits="userSpaceOnUse" maskUnits="objectBoundingBox" x="0" y="0" width="14" height="13" fill="white">
            <use xlink:href="#path-4"></use>
        </mask>
        <linearGradient x1="50%" y1="0%" x2="50%" y2="100%" id="linearGradient-6">
            <stop stop-color="#C3FFBF" stop-opacity="0.305015297" offset="0%"></stop>
            <stop stop-color="#83E991" stop-opacity="0.778791521" offset="100%"></stop>
        </linearGradient>
        <linearGradient x1="84.4802726%" y1="26.4686659%" x2="44.517753%" y2="83.7907609%" id="linearGradient-7">
            <stop stop-color="#FFFFFF" offset="0%"></stop>
            <stop stop-color="#D6DDF6" offset="100%"></stop>
        </linearGradient>
        <linearGradient x1="72.5830172%" y1="22.1952791%" x2="50%" y2="86.7346939%" id="linearGradient-8">
            <stop stop-color="#FFFFFF" offset="0%"></stop>
            <stop stop-color="#D7FFC6" offset="100%"></stop>
        </linearGradient>
        <radialGradient cx="52.3239218%" cy="53.481434%" fx="52.3239218%" fy="53.481434%" r="63.7416716%" gradientTransform="translate(0.523239,0.534814),scale(0.875000,1.000000),rotate(122.019022),scale(1.000000,1.264710),translate(-0.523239,-0.534814)" id="radialGradient-9">
            <stop stop-color="#000000" offset="0%"></stop>
            <stop stop-color="#000000" stop-opacity="0.148218969" offset="100%"></stop>
        </radialGradient>
        <linearGradient x1="69.3330099%" y1="71.0965544%" x2="56.8323603%" y2="57.7013487%" id="linearGradient-10">
            <stop stop-color="#C6C6C6" offset="0%"></stop>
            <stop stop-color="#E7E7E7" offset="53.0517663%"></stop>
            <stop stop-color="#F4F4F4" offset="100%"></stop>
        </linearGradient>
        <path d="M18.625,0.125 C18.625,0.125 18.265308,1.59935251 17.9527439,2.1037234 C17.4578669,2.90228456 16.8963415,2.71010638 16.4481707,3.38031915 C16,4.05053191 16.1684576,4.53798025 15.1356707,5.42287234 C14.582197,5.89708883 13.375,6.125 13.375,6.125 C16.5898876,6.125 18.625,2.43435252 18.625,0.125 Z" id="path-11"></path>
        <filter x="-38.1%" y="-16.7%" width="176.2%" height="166.7%" filterUnits="objectBoundingBox" id="filter-12">
            <feOffset dx="0" dy="1" in="SourceAlpha" result="shadowOffsetOuter1"></feOffset>
            <feGaussianBlur stdDeviation="0.5" in="shadowOffsetOuter1" result="shadowBlurOuter1"></feGaussianBlur>
            <feColorMatrix values="0 0 0 0 0   0 0 0 0 0   0 0 0 0 0  0 0 0 0.05 0" type="matrix" in="shadowBlurOuter1"></feColorMatrix>
        </filter>
        <linearGradient x1="80.4721539%" y1="14.3624663%" x2="50%" y2="90.5%" id="linearGradient-13">
            <stop stop-color="#000000" stop-opacity="0.0351835664" offset="0%"></stop>
            <stop stop-color="#000000" stop-opacity="0.08" offset="100%"></stop>
        </linearGradient>
        <radialGradient cx="50%" cy="50%" fx="50%" fy="50%" r="94.5776543%" gradientTransform="translate(0.500000,0.500000),scale(0.458763,1.000000),scale(1.000000,0.304672),translate(-0.500000,-0.500000)" id="radialGradient-14">
            <stop stop-color="#EBFF26" offset="0%"></stop>
            <stop stop-color="#F2FF3D" stop-opacity="0" offset="100%"></stop>
        </radialGradient>
        <filter x="-3.9%" y="-8.4%" width="107.7%" height="116.9%" filterUnits="objectBoundingBox" id="filter-15">
            <feGaussianBlur stdDeviation="0.3125" in="SourceGraphic"></feGaussianBlur>
        </filter>
        <radialGradient cx="50%" cy="50%" fx="50%" fy="50%" r="520.710277%" gradientTransform="translate(0.500000,0.500000),scale(0.094512,1.000000),scale(1.000000,0.071987),translate(-0.500000,-0.500000)" id="radialGradient-16">
            <stop stop-color="#F7FF81" stop-opacity="0.995473976" offset="0%"></stop>
            <stop stop-color="#F8FF98" stop-opacity="0" offset="100%"></stop>
        </radialGradient>
        <radialGradient cx="50%" cy="50%" fx="50%" fy="50%" r="1628.5185%" gradientTransform="translate(0.500000,0.500000),scale(0.030220,1.000000),scale(1.000000,0.013063),translate(-0.500000,-0.500000)" id="radialGradient-17">
            <stop stop-color="#FFFFFF" stop-opacity="0.995473976" offset="0%"></stop>
            <stop stop-color="#FFFFFF" stop-opacity="0" offset="100%"></stop>
        </radialGradient>
        <linearGradient x1="0%" y1="50%" x2="99.2134713%" y2="50%" id="linearGradient-18">
            <stop stop-color="#FFFFFF" stop-opacity="0" offset="0%"></stop>
            <stop stop-color="#FFFFFF" stop-opacity="0.891541755" offset="49.7980275%"></stop>
            <stop stop-color="#FFFFFF" stop-opacity="0" offset="100%"></stop>
        </linearGradient>
    </defs>
    <g id="扫描仪-32" stroke="none" stroke-width="1" fill="none" fill-rule="evenodd">
        <g id="编组-2" filter="url(#filter-1)" transform="translate(1.000000, 1.000000)">
            <circle id="椭圆形" fill="url(#linearGradient-2)" cx="15" cy="15" r="15"></circle>
            <g id="编组" filter="url(#filter-3)" transform="translate(3.000000, 4.500000)">
                <use id="矩形备份-3" stroke-opacity="0.703316215" stroke="#96FF8F" mask="url(#mask-5)" stroke-width="2" fill="#0EA141" stroke-linejoin="round" stroke-dasharray="1,1" xlink:href="#path-4"></use>
                <path d="M7.5,15.5 C7.77614237,15.5 8,15.7238576 8,16 C8,16.2761424 7.77614237,16.5 7.5,16.5 C7.22385763,16.5 7,16.2761424 7,16 C7,15.7238576 7.22385763,15.5 7.5,15.5 Z M13.5,15.5 C13.7761424,15.5 14,15.7238576 14,16 C14,16.2761424 13.7761424,16.5 13.5,16.5 L9.5,16.5 C9.22385763,16.5 9,16.2761424 9,16 C9,15.7238576 9.22385763,15.5 9.5,15.5 L13.5,15.5 Z M8.5,13.5 C8.77614237,13.5 9,13.7238576 9,14 C9,14.2761424 8.77614237,14.5 8.5,14.5 L7.5,14.5 C7.22385763,14.5 7,14.2761424 7,14 C7,13.7238576 7.22385763,13.5 7.5,13.5 L8.5,13.5 Z M16.5,13.5 C16.7761424,13.5 17,13.7238576 17,14 C17,14.2761424 16.7761424,14.5 16.5,14.5 L10.5,14.5 C10.2238576,14.5 10,14.2761424 10,14 C10,13.7238576 10.2238576,13.5 10.5,13.5 L16.5,13.5 Z" id="形状结合备份-2" fill="url(#linearGradient-6)" opacity="0.359375"></path>
                <path d="M7.5,0.5 L14.3026316,0.5 L14.3026316,0.5 C15.133755,0.842655781 16.0650416,1.5208167 17.0964912,2.53448276 C18.0789474,3.5 18.7134503,4.70689655 19,6.15517241 L19,12.5 L5,12.5 L5,3 C5,1.61928813 6.11928813,0.5 7.5,0.5 Z" id="矩形备份-5" fill="url(#linearGradient-7)"></path>
                <path d="M7.5,0.5 L16.5,0.5 C17.8807119,0.5 19,1.61928813 19,3 L19,12.5 L19,12.5 L5,12.5 L5,3 C5,1.61928813 6.11928813,0.5 7.5,0.5 Z" id="矩形备份-2" fill="url(#linearGradient-8)"></path>
                <path d="M13,0.5 L16.5,0.5 C17.8807119,0.5 19,1.61928813 19,3 L19,5.25 L19,5.25 L19,5.75 C18.8125,4.22916667 18.0625,2.97916667 16.75,2 C15.6049699,1.14577117 14.3549699,0.645771168 13,0.5 Z" id="路径" fill-opacity="0.28" fill="url(#radialGradient-9)"></path>
                <g id="路径-11" transform="translate(16.000000, 3.125000) rotate(-90.000000) translate(-16.000000, -3.125000) ">
                    <use fill="black" fill-opacity="1" filter="url(#filter-12)" xlink:href="#path-11"></use>
                    <use fill="url(#linearGradient-10)" fill-rule="evenodd" xlink:href="#path-11"></use>
                </g>
                <path d="M16.5,10.5 C16.7761424,10.5 17,10.7238576 17,11 C17,11.2761424 16.7761424,11.5 16.5,11.5 L7.5,11.5 C7.22385763,11.5 7,11.2761424 7,11 C7,10.7238576 7.22385763,10.5 7.5,10.5 L16.5,10.5 Z M14.5,8.5 C14.7761424,8.5 15,8.72385763 15,9 C15,9.27614237 14.7761424,9.5 14.5,9.5 L10.5,9.5 C10.2238576,9.5 10,9.27614237 10,9 C10,8.72385763 10.2238576,8.5 10.5,8.5 L14.5,8.5 Z M8.5,8.5 C8.77614237,8.5 9,8.72385763 9,9 C9,9.27614237 8.77614237,9.5 8.5,9.5 L7.5,9.5 C7.22385763,9.5 7,9.27614237 7,9 C7,8.72385763 7.22385763,8.5 7.5,8.5 L8.5,8.5 Z M9.5,6.5 C9.77614237,6.5 10,6.72385763 10,7 C10,7.27614237 9.77614237,7.5 9.5,7.5 L7.5,7.5 C7.22385763,7.5 7,7.27614237 7,7 C7,6.72385763 7.22385763,6.5 7.5,6.5 L9.5,6.5 Z M16.5,4.5 C16.7761424,4.5 17,4.72385763 17,5 L17,7 C17,7.27614237 16.7761424,7.5 16.5,7.5 L11.5,7.5 C11.2238576,7.5 11,7.27614237 11,7 L11,5 C11,4.72385763 11.2238576,4.5 11.5,4.5 L16.5,4.5 Z M9.5,4.5 C9.77614237,4.5 10,4.72385763 10,5 C10,5.27614237 9.77614237,5.5 9.5,5.5 L7.5,5.5 C7.22385763,5.5 7,5.27614237 7,5 C7,4.72385763 7.22385763,4.5 7.5,4.5 L9.5,4.5 Z M14.5,2.5 C14.7761424,2.5 15,2.72385763 15,3 C15,3.27614237 14.7761424,3.5 14.5,3.5 L12.5,3.5 C12.2238576,3.5 12,3.27614237 12,3 C12,2.72385763 12.2238576,2.5 12.5,2.5 L14.5,2.5 Z M10.5,2.5 C10.7761424,2.5 11,2.72385763 11,3 C11,3.27614237 10.7761424,3.5 10.5,3.5 L7.5,3.5 C7.22385763,3.5 7,3.27614237 7,3 C7,2.72385763 7.22385763,2.5 7.5,2.5 L10.5,2.5 Z" id="形状结合备份" fill="url(#linearGradient-13)"></path>
                <g id="编组-3" transform="translate(0.000000, 6.800000)">
                    <polygon id="矩形" fill="url(#radialGradient-14)" opacity="0.799153646" filter="url(#filter-15)" points="0 4.95410156 12.125 0 24.25 4.43261719 24.25 6.86621094 12.28125 11.125 0 7.38769531"></polygon>
                    <rect id="矩形备份-7" fill="url(#radialGradient-16)" x="1.875" y="4.625" width="20.5" height="1.9375"></rect>
                    <rect id="矩形备份-10" fill="url(#radialGradient-17)" opacity="0.95265997" x="0.75" y="5.25" width="22.75" height="1"></rect>
                    <rect id="矩形备份-22" fill="url(#linearGradient-18)" opacity="0.95265997" x="5.25" y="5.5" width="13.75" height="1"></rect>
                </g>
            </g>
        </g>
    </g>
</svg>